<svg xmlns="http://www.w3.org/2000/svg" xmlns:xlink="http://www.w3.org/1999/xlink" width="1076" zoomAndPan="magnify" viewBox="0 0 806.88 92.999996" height="124" preserveAspectRatio="xMidYMid meet" version="1.0"><defs><g/><clipPath id="bfd51075ea"><path d="M 0 0.0078125 L 806.761719 0.0078125 L 806.761719 92.992188 L 0 92.992188 Z M 0 0.0078125 " clip-rule="nonzero"/></clipPath></defs><g clip-path="url(#bfd51075ea)"><path fill="#ffffff" d="M 0 0.0078125 L 806.878906 0.0078125 L 806.878906 92.992188 L 0 92.992188 Z M 0 0.0078125 " fill-opacity="1" fill-rule="nonzero"/><path fill="#c400ff" d="M 0 0.0078125 L 806.878906 0.0078125 L 806.878906 92.992188 L 0 92.992188 Z M 0 0.0078125 " fill-opacity="1" fill-rule="nonzero"/></g><g fill="#ffffff" fill-opacity="1"><g transform="translate(9.3293, 63.047551)"><g><path d="M 7.5625 -4.234375 L 18.75 -4.234375 L 18.75 0 L 2.28125 0 L 2.28125 -25.59375 L 7.5625 -25.59375 Z M 7.5625 -4.234375 "/></g></g><g transform="translate(28.820542, 63.047551)"><g><path d="M 1.15625 -9.6875 C 1.15625 -11.570312 1.519531 -13.253906 2.25 -14.734375 C 2.976562 -16.210938 4.023438 -17.351562 5.390625 -18.15625 C 6.753906 -18.96875 8.335938 -19.375 10.140625 -19.375 C 12.710938 -19.375 14.804688 -18.585938 16.421875 -17.015625 C 18.046875 -15.441406 18.953125 -13.3125 19.140625 -10.625 L 19.171875 -9.3125 C 19.171875 -6.394531 18.359375 -4.050781 16.734375 -2.28125 C 15.109375 -0.519531 12.921875 0.359375 10.171875 0.359375 C 7.429688 0.359375 5.242188 -0.519531 3.609375 -2.28125 C 1.972656 -4.039062 1.15625 -6.429688 1.15625 -9.453125 Z M 6.234375 -9.3125 C 6.234375 -7.507812 6.570312 -6.128906 7.25 -5.171875 C 7.9375 -4.222656 8.910156 -3.75 10.171875 -3.75 C 11.410156 -3.75 12.375 -4.21875 13.0625 -5.15625 C 13.75 -6.101562 14.09375 -7.613281 14.09375 -9.6875 C 14.09375 -11.457031 13.75 -12.828125 13.0625 -13.796875 C 12.375 -14.773438 11.398438 -15.265625 10.140625 -15.265625 C 8.898438 -15.265625 7.9375 -14.78125 7.25 -13.8125 C 6.570312 -12.84375 6.234375 -11.34375 6.234375 -9.3125 Z M 6.234375 -9.3125 "/></g></g><g transform="translate(49.172983, 63.047551)"><g><path d="M 1.21875 -9.65625 C 1.21875 -12.570312 1.910156 -14.921875 3.296875 -16.703125 C 4.679688 -18.484375 6.550781 -19.375 8.90625 -19.375 C 11 -19.375 12.625 -18.660156 13.78125 -17.234375 L 14 -19.015625 L 18.59375 -19.015625 L 18.59375 -0.640625 C 18.59375 1.023438 18.210938 2.472656 17.453125 3.703125 C 16.703125 4.941406 15.640625 5.878906 14.265625 6.515625 C 12.898438 7.160156 11.296875 7.484375 9.453125 7.484375 C 8.054688 7.484375 6.695312 7.203125 5.375 6.640625 C 4.050781 6.085938 3.050781 5.375 2.375 4.5 L 4.625 1.40625 C 5.882812 2.820312 7.421875 3.53125 9.234375 3.53125 C 10.578125 3.53125 11.625 3.171875 12.375 2.453125 C 13.125 1.734375 13.5 0.710938 13.5 -0.609375 L 13.5 -1.640625 C 12.332031 -0.304688 10.789062 0.359375 8.875 0.359375 C 6.59375 0.359375 4.742188 -0.535156 3.328125 -2.328125 C 1.921875 -4.117188 1.21875 -6.488281 1.21875 -9.4375 Z M 6.296875 -9.28125 C 6.296875 -7.5625 6.640625 -6.210938 7.328125 -5.234375 C 8.023438 -4.253906 8.972656 -3.765625 10.171875 -3.765625 C 11.722656 -3.765625 12.832031 -4.34375 13.5 -5.5 L 13.5 -13.5 C 12.820312 -14.65625 11.726562 -15.234375 10.21875 -15.234375 C 9 -15.234375 8.039062 -14.734375 7.34375 -13.734375 C 6.644531 -12.742188 6.296875 -11.257812 6.296875 -9.28125 Z M 6.296875 -9.28125 "/></g></g><g transform="translate(69.718754, 63.047551)"><g><path d="M 7.3125 0 L 2.21875 0 L 2.21875 -19.015625 L 7.3125 -19.015625 Z M 1.921875 -23.9375 C 1.921875 -24.695312 2.175781 -25.320312 2.6875 -25.8125 C 3.195312 -26.3125 3.890625 -26.5625 4.765625 -26.5625 C 5.628906 -26.5625 6.316406 -26.3125 6.828125 -25.8125 C 7.347656 -25.320312 7.609375 -24.695312 7.609375 -23.9375 C 7.609375 -23.164062 7.347656 -22.535156 6.828125 -22.046875 C 6.304688 -21.554688 5.617188 -21.3125 4.765625 -21.3125 C 3.910156 -21.3125 3.222656 -21.554688 2.703125 -22.046875 C 2.179688 -22.535156 1.921875 -23.164062 1.921875 -23.9375 Z M 1.921875 -23.9375 "/></g></g><g transform="translate(79.262257, 63.047551)"><g><path d="M 6.625 -19.015625 L 6.78125 -16.828125 C 8.144531 -18.523438 9.96875 -19.375 12.25 -19.375 C 14.269531 -19.375 15.769531 -18.78125 16.75 -17.59375 C 17.738281 -16.414062 18.242188 -14.644531 18.265625 -12.28125 L 18.265625 0 L 13.1875 0 L 13.1875 -12.171875 C 13.1875 -13.242188 12.953125 -14.019531 12.484375 -14.5 C 12.015625 -14.988281 11.234375 -15.234375 10.140625 -15.234375 C 8.710938 -15.234375 7.640625 -14.625 6.921875 -13.40625 L 6.921875 0 L 1.84375 0 L 1.84375 -19.015625 Z M 6.625 -19.015625 "/></g></g><g transform="translate(99.421367, 63.047551)"><g/></g><g transform="translate(108.384877, 63.047551)"><g><path d="M 1.25 -6.890625 C 1.25 -8.078125 1.578125 -9.171875 2.234375 -10.171875 C 2.898438 -11.179688 4.117188 -12.300781 5.890625 -13.53125 C 5.128906 -14.550781 4.53125 -15.507812 4.09375 -16.40625 C 3.664062 -17.300781 3.453125 -18.238281 3.453125 -19.21875 C 3.453125 -21.207031 4.078125 -22.828125 5.328125 -24.078125 C 6.585938 -25.328125 8.285156 -25.953125 10.421875 -25.953125 C 12.335938 -25.953125 13.90625 -25.378906 15.125 -24.234375 C 16.351562 -23.097656 16.96875 -21.679688 16.96875 -19.984375 C 16.96875 -17.941406 15.9375 -16.144531 13.875 -14.59375 L 11.90625 -13.171875 L 16.3125 -8.03125 C 17 -9.394531 17.34375 -10.894531 17.34375 -12.53125 L 21.671875 -12.53125 C 21.671875 -9.207031 20.90625 -6.515625 19.375 -4.453125 L 23.203125 0 L 17.4375 0 L 16.125 -1.515625 C 14.238281 -0.265625 12.066406 0.359375 9.609375 0.359375 C 7.078125 0.359375 5.050781 -0.304688 3.53125 -1.640625 C 2.007812 -2.972656 1.25 -4.722656 1.25 -6.890625 Z M 9.859375 -3.734375 C 11.078125 -3.734375 12.234375 -4.070312 13.328125 -4.75 L 8.28125 -10.578125 L 7.90625 -10.3125 C 6.863281 -9.425781 6.34375 -8.378906 6.34375 -7.171875 C 6.34375 -6.148438 6.664062 -5.320312 7.3125 -4.6875 C 7.96875 -4.050781 8.816406 -3.734375 9.859375 -3.734375 Z M 8 -19.28125 C 8 -18.40625 8.515625 -17.300781 9.546875 -15.96875 L 10.90625 -16.859375 C 11.59375 -17.304688 12.066406 -17.738281 12.328125 -18.15625 C 12.597656 -18.582031 12.734375 -19.085938 12.734375 -19.671875 C 12.734375 -20.253906 12.515625 -20.757812 12.078125 -21.1875 C 11.640625 -21.625 11.082031 -21.84375 10.40625 -21.84375 C 9.675781 -21.84375 9.09375 -21.609375 8.65625 -21.140625 C 8.21875 -20.671875 8 -20.050781 8 -19.28125 Z M 8 -19.28125 "/></g></g><g transform="translate(132.006363, 63.047551)"><g/></g><g transform="translate(140.969874, 63.047551)"><g><path d="M 22.53125 -3.234375 C 21.582031 -2.097656 20.238281 -1.210938 18.5 -0.578125 C 16.769531 0.046875 14.851562 0.359375 12.75 0.359375 C 10.53125 0.359375 8.582031 -0.125 6.90625 -1.09375 C 5.238281 -2.0625 3.953125 -3.460938 3.046875 -5.296875 C 2.140625 -7.140625 1.675781 -9.304688 1.65625 -11.796875 L 1.65625 -13.53125 C 1.65625 -16.09375 2.082031 -18.304688 2.9375 -20.171875 C 3.800781 -22.035156 5.046875 -23.460938 6.671875 -24.453125 C 8.296875 -25.453125 10.195312 -25.953125 12.375 -25.953125 C 15.40625 -25.953125 17.773438 -25.226562 19.484375 -23.78125 C 21.203125 -22.332031 22.21875 -20.222656 22.53125 -17.453125 L 17.40625 -17.453125 C 17.164062 -18.921875 16.644531 -19.992188 15.84375 -20.671875 C 15.039062 -21.347656 13.9375 -21.6875 12.53125 -21.6875 C 10.738281 -21.6875 9.375 -21.015625 8.4375 -19.671875 C 7.5 -18.328125 7.023438 -16.320312 7.015625 -13.65625 L 7.015625 -12.03125 C 7.015625 -9.34375 7.523438 -7.3125 8.546875 -5.9375 C 9.566406 -4.570312 11.0625 -3.890625 13.03125 -3.890625 C 15.007812 -3.890625 16.421875 -4.3125 17.265625 -5.15625 L 17.265625 -9.5625 L 12.46875 -9.5625 L 12.46875 -13.453125 L 22.53125 -13.453125 Z M 22.53125 -3.234375 "/></g></g><g transform="translate(165.487711, 63.047551)"><g><path d="M 10.703125 0.359375 C 7.910156 0.359375 5.640625 -0.492188 3.890625 -2.203125 C 2.140625 -3.921875 1.265625 -6.203125 1.265625 -9.046875 L 1.265625 -9.546875 C 1.265625 -11.453125 1.632812 -13.15625 2.375 -14.65625 C 3.113281 -16.164062 4.160156 -17.328125 5.515625 -18.140625 C 6.867188 -18.960938 8.410156 -19.375 10.140625 -19.375 C 12.742188 -19.375 14.789062 -18.550781 16.28125 -16.90625 C 17.78125 -15.269531 18.53125 -12.945312 18.53125 -9.9375 L 18.53125 -7.859375 L 6.421875 -7.859375 C 6.578125 -6.617188 7.066406 -5.625 7.890625 -4.875 C 8.722656 -4.125 9.773438 -3.75 11.046875 -3.75 C 12.992188 -3.75 14.519531 -4.457031 15.625 -5.875 L 18.125 -3.078125 C 17.363281 -1.992188 16.332031 -1.148438 15.03125 -0.546875 C 13.726562 0.0546875 12.285156 0.359375 10.703125 0.359375 Z M 10.125 -15.265625 C 9.113281 -15.265625 8.296875 -14.921875 7.671875 -14.234375 C 7.046875 -13.554688 6.644531 -12.585938 6.46875 -11.328125 L 13.53125 -11.328125 L 13.53125 -11.71875 C 13.507812 -12.84375 13.207031 -13.710938 12.625 -14.328125 C 12.039062 -14.953125 11.207031 -15.265625 10.125 -15.265625 Z M 10.125 -15.265625 "/></g></g><g transform="translate(184.9438, 63.047551)"><g><path d="M 8.03125 -23.703125 L 8.03125 -19.015625 L 11.28125 -19.015625 L 11.28125 -15.296875 L 8.03125 -15.296875 L 8.03125 -5.796875 C 8.03125 -5.097656 8.164062 -4.59375 8.4375 -4.28125 C 8.707031 -3.976562 9.222656 -3.828125 9.984375 -3.828125 C 10.546875 -3.828125 11.046875 -3.867188 11.484375 -3.953125 L 11.484375 -0.109375 C 10.484375 0.203125 9.457031 0.359375 8.40625 0.359375 C 4.84375 0.359375 3.023438 -1.441406 2.953125 -5.046875 L 2.953125 -15.296875 L 0.171875 -15.296875 L 0.171875 -19.015625 L 2.953125 -19.015625 L 2.953125 -23.703125 Z M 8.03125 -23.703125 "/></g></g><g transform="translate(197.106054, 63.047551)"><g/></g><g transform="translate(206.069564, 63.047551)"><g><path d="M 21.65625 -25.59375 L 21.65625 -8.734375 C 21.65625 -5.929688 20.78125 -3.710938 19.03125 -2.078125 C 17.28125 -0.453125 14.882812 0.359375 11.84375 0.359375 C 8.851562 0.359375 6.476562 -0.429688 4.71875 -2.015625 C 2.96875 -3.597656 2.078125 -5.773438 2.046875 -8.546875 L 2.046875 -25.59375 L 7.3125 -25.59375 L 7.3125 -8.703125 C 7.3125 -7.023438 7.710938 -5.800781 8.515625 -5.03125 C 9.316406 -4.269531 10.425781 -3.890625 11.84375 -3.890625 C 14.8125 -3.890625 16.316406 -5.445312 16.359375 -8.5625 L 16.359375 -25.59375 Z M 21.65625 -25.59375 "/></g></g><g transform="translate(229.761352, 63.047551)"><g><path d="M 19.078125 -9.328125 C 19.078125 -6.398438 18.410156 -4.050781 17.078125 -2.28125 C 15.742188 -0.519531 13.945312 0.359375 11.6875 0.359375 C 9.769531 0.359375 8.21875 -0.3125 7.03125 -1.65625 L 7.03125 7.3125 L 1.953125 7.3125 L 1.953125 -19.015625 L 6.65625 -19.015625 L 6.84375 -17.15625 C 8.070312 -18.632812 9.675781 -19.375 11.65625 -19.375 C 14 -19.375 15.820312 -18.503906 17.125 -16.765625 C 18.425781 -15.035156 19.078125 -12.644531 19.078125 -9.59375 Z M 14 -9.703125 C 14 -11.472656 13.679688 -12.835938 13.046875 -13.796875 C 12.421875 -14.753906 11.507812 -15.234375 10.3125 -15.234375 C 8.71875 -15.234375 7.625 -14.625 7.03125 -13.40625 L 7.03125 -5.625 C 7.65625 -4.375 8.765625 -3.75 10.359375 -3.75 C 12.785156 -3.75 14 -5.734375 14 -9.703125 Z M 14 -9.703125 "/></g></g><g transform="translate(250.025916, 63.047551)"><g><path d="M 8.03125 -23.703125 L 8.03125 -19.015625 L 11.28125 -19.015625 L 11.28125 -15.296875 L 8.03125 -15.296875 L 8.03125 -5.796875 C 8.03125 -5.097656 8.164062 -4.59375 8.4375 -4.28125 C 8.707031 -3.976562 9.222656 -3.828125 9.984375 -3.828125 C 10.546875 -3.828125 11.046875 -3.867188 11.484375 -3.953125 L 11.484375 -0.109375 C 10.484375 0.203125 9.457031 0.359375 8.40625 0.359375 C 4.84375 0.359375 3.023438 -1.441406 2.953125 -5.046875 L 2.953125 -15.296875 L 0.171875 -15.296875 L 0.171875 -19.015625 L 2.953125 -19.015625 L 2.953125 -23.703125 Z M 8.03125 -23.703125 "/></g></g><g transform="translate(262.188169, 63.047551)"><g><path d="M 1.15625 -9.6875 C 1.15625 -11.570312 1.519531 -13.253906 2.25 -14.734375 C 2.976562 -16.210938 4.023438 -17.351562 5.390625 -18.15625 C 6.753906 -18.96875 8.335938 -19.375 10.140625 -19.375 C 12.710938 -19.375 14.804688 -18.585938 16.421875 -17.015625 C 18.046875 -15.441406 18.953125 -13.3125 19.140625 -10.625 L 19.171875 -9.3125 C 19.171875 -6.394531 18.359375 -4.050781 16.734375 -2.28125 C 15.109375 -0.519531 12.921875 0.359375 10.171875 0.359375 C 7.429688 0.359375 5.242188 -0.519531 3.609375 -2.28125 C 1.972656 -4.039062 1.15625 -6.429688 1.15625 -9.453125 Z M 6.234375 -9.3125 C 6.234375 -7.507812 6.570312 -6.128906 7.25 -5.171875 C 7.9375 -4.222656 8.910156 -3.75 10.171875 -3.75 C 11.410156 -3.75 12.375 -4.21875 13.0625 -5.15625 C 13.75 -6.101562 14.09375 -7.613281 14.09375 -9.6875 C 14.09375 -11.457031 13.75 -12.828125 13.0625 -13.796875 C 12.375 -14.773438 11.398438 -15.265625 10.140625 -15.265625 C 8.898438 -15.265625 7.9375 -14.78125 7.25 -13.8125 C 6.570312 -12.84375 6.234375 -11.34375 6.234375 -9.3125 Z M 6.234375 -9.3125 "/></g></g><g transform="translate(282.540611, 63.047551)"><g/></g><g transform="translate(291.504121, 63.047551)"><g><path d="M 14.078125 0 L 9 0 L 9 -19.578125 L 2.9375 -17.703125 L 2.9375 -21.828125 L 13.53125 -25.625 L 14.078125 -25.625 Z M 14.078125 0 "/></g></g><g transform="translate(312.155346, 63.047551)"><g><path d="M 18.96875 -10.578125 C 18.96875 -7.046875 18.234375 -4.335938 16.765625 -2.453125 C 15.304688 -0.578125 13.164062 0.359375 10.34375 0.359375 C 7.550781 0.359375 5.414062 -0.5625 3.9375 -2.40625 C 2.457031 -4.25 1.703125 -6.882812 1.671875 -10.3125 L 1.671875 -15.03125 C 1.671875 -18.601562 2.410156 -21.316406 3.890625 -23.171875 C 5.378906 -25.023438 7.515625 -25.953125 10.296875 -25.953125 C 13.085938 -25.953125 15.222656 -25.03125 16.703125 -23.1875 C 18.179688 -21.351562 18.9375 -18.722656 18.96875 -15.296875 Z M 13.890625 -15.75 C 13.890625 -17.875 13.597656 -19.414062 13.015625 -20.375 C 12.429688 -21.34375 11.523438 -21.828125 10.296875 -21.828125 C 9.109375 -21.828125 8.226562 -21.367188 7.65625 -20.453125 C 7.082031 -19.535156 6.78125 -18.097656 6.75 -16.140625 L 6.75 -9.921875 C 6.75 -7.828125 7.03125 -6.273438 7.59375 -5.265625 C 8.164062 -4.253906 9.082031 -3.75 10.34375 -3.75 C 11.582031 -3.75 12.476562 -4.234375 13.03125 -5.203125 C 13.582031 -6.171875 13.867188 -7.660156 13.890625 -9.671875 Z M 13.890625 -15.75 "/></g></g><g transform="translate(332.80657, 63.047551)"><g><path d="M 1.671875 -20.671875 C 1.671875 -22.242188 2.179688 -23.519531 3.203125 -24.5 C 4.222656 -25.476562 5.554688 -25.96875 7.203125 -25.96875 C 8.878906 -25.96875 10.226562 -25.484375 11.25 -24.515625 C 12.269531 -23.546875 12.78125 -22.234375 12.78125 -20.578125 L 12.78125 -19.3125 C 12.78125 -17.738281 12.269531 -16.46875 11.25 -15.5 C 10.226562 -14.539062 8.894531 -14.0625 7.25 -14.0625 C 5.582031 -14.0625 4.234375 -14.546875 3.203125 -15.515625 C 2.179688 -16.484375 1.671875 -17.785156 1.671875 -19.421875 Z M 5.046875 -19.3125 C 5.046875 -18.613281 5.25 -18.050781 5.65625 -17.625 C 6.0625 -17.195312 6.59375 -16.984375 7.25 -16.984375 C 7.90625 -16.984375 8.425781 -17.195312 8.8125 -17.625 C 9.195312 -18.0625 9.390625 -18.644531 9.390625 -19.375 L 9.390625 -20.671875 C 9.390625 -21.378906 9.195312 -21.945312 8.8125 -22.375 C 8.425781 -22.8125 7.890625 -23.03125 7.203125 -23.03125 C 6.554688 -23.03125 6.035156 -22.816406 5.640625 -22.390625 C 5.242188 -21.960938 5.046875 -21.367188 5.046875 -20.609375 Z M 13.90625 -6.28125 C 13.90625 -7.863281 14.421875 -9.132812 15.453125 -10.09375 C 16.484375 -11.0625 17.816406 -11.546875 19.453125 -11.546875 C 21.117188 -11.546875 22.460938 -11.066406 23.484375 -10.109375 C 24.515625 -9.160156 25.03125 -7.847656 25.03125 -6.171875 L 25.03125 -4.90625 C 25.03125 -3.332031 24.523438 -2.0625 23.515625 -1.09375 C 22.515625 -0.125 21.175781 0.359375 19.5 0.359375 C 17.8125 0.359375 16.457031 -0.125 15.4375 -1.09375 C 14.414062 -2.070312 13.90625 -3.363281 13.90625 -4.96875 Z M 17.28125 -4.90625 C 17.28125 -4.257812 17.488281 -3.707031 17.90625 -3.25 C 18.332031 -2.789062 18.863281 -2.5625 19.5 -2.5625 C 20.925781 -2.5625 21.640625 -3.351562 21.640625 -4.9375 L 21.640625 -6.28125 C 21.640625 -6.976562 21.4375 -7.539062 21.03125 -7.96875 C 20.632812 -8.394531 20.109375 -8.609375 19.453125 -8.609375 C 18.796875 -8.609375 18.269531 -8.394531 17.875 -7.96875 C 17.476562 -7.539062 17.28125 -6.957031 17.28125 -6.21875 Z M 8.25 -1.921875 L 5.765625 -3.25 L 18.265625 -23.25 L 20.75 -21.921875 Z M 8.25 -1.921875 "/></g></g><g transform="translate(359.380742, 63.047551)"><g/></g><g transform="translate(368.344253, 63.047551)"><g><path d="M 1.15625 -9.6875 C 1.15625 -11.570312 1.519531 -13.253906 2.25 -14.734375 C 2.976562 -16.210938 4.023438 -17.351562 5.390625 -18.15625 C 6.753906 -18.96875 8.335938 -19.375 10.140625 -19.375 C 12.710938 -19.375 14.804688 -18.585938 16.421875 -17.015625 C 18.046875 -15.441406 18.953125 -13.3125 19.140625 -10.625 L 19.171875 -9.3125 C 19.171875 -6.394531 18.359375 -4.050781 16.734375 -2.28125 C 15.109375 -0.519531 12.921875 0.359375 10.171875 0.359375 C 7.429688 0.359375 5.242188 -0.519531 3.609375 -2.28125 C 1.972656 -4.039062 1.15625 -6.429688 1.15625 -9.453125 Z M 6.234375 -9.3125 C 6.234375 -7.507812 6.570312 -6.128906 7.25 -5.171875 C 7.9375 -4.222656 8.910156 -3.75 10.171875 -3.75 C 11.410156 -3.75 12.375 -4.21875 13.0625 -5.15625 C 13.75 -6.101562 14.09375 -7.613281 14.09375 -9.6875 C 14.09375 -11.457031 13.75 -12.828125 13.0625 -13.796875 C 12.375 -14.773438 11.398438 -15.265625 10.140625 -15.265625 C 8.898438 -15.265625 7.9375 -14.78125 7.25 -13.8125 C 6.570312 -12.84375 6.234375 -11.34375 6.234375 -9.3125 Z M 6.234375 -9.3125 "/></g></g><g transform="translate(388.696694, 63.047551)"><g><path d="M 3.34375 0 L 3.34375 -15.296875 L 0.515625 -15.296875 L 0.515625 -19.015625 L 3.34375 -19.015625 L 3.34375 -20.640625 C 3.34375 -22.773438 3.953125 -24.429688 5.171875 -25.609375 C 6.398438 -26.785156 8.113281 -27.375 10.3125 -27.375 C 11.019531 -27.375 11.882812 -27.253906 12.90625 -27.015625 L 12.84375 -23.078125 C 12.425781 -23.179688 11.910156 -23.234375 11.296875 -23.234375 C 9.390625 -23.234375 8.4375 -22.335938 8.4375 -20.546875 L 8.4375 -19.015625 L 12.21875 -19.015625 L 12.21875 -15.296875 L 8.4375 -15.296875 L 8.4375 0 Z M 3.34375 0 "/></g></g><g transform="translate(401.597119, 63.047551)"><g><path d="M 3.34375 0 L 3.34375 -15.296875 L 0.515625 -15.296875 L 0.515625 -19.015625 L 3.34375 -19.015625 L 3.34375 -20.640625 C 3.34375 -22.773438 3.953125 -24.429688 5.171875 -25.609375 C 6.398438 -26.785156 8.113281 -27.375 10.3125 -27.375 C 11.019531 -27.375 11.882812 -27.253906 12.90625 -27.015625 L 12.84375 -23.078125 C 12.425781 -23.179688 11.910156 -23.234375 11.296875 -23.234375 C 9.390625 -23.234375 8.4375 -22.335938 8.4375 -20.546875 L 8.4375 -19.015625 L 12.21875 -19.015625 L 12.21875 -15.296875 L 8.4375 -15.296875 L 8.4375 0 Z M 3.34375 0 "/></g></g><g transform="translate(414.497543, 63.047551)"><g/></g><g transform="translate(423.461054, 63.047551)"><g><path d="M 21.65625 -25.59375 L 21.65625 -8.734375 C 21.65625 -5.929688 20.78125 -3.710938 19.03125 -2.078125 C 17.28125 -0.453125 14.882812 0.359375 11.84375 0.359375 C 8.851562 0.359375 6.476562 -0.429688 4.71875 -2.015625 C 2.96875 -3.597656 2.078125 -5.773438 2.046875 -8.546875 L 2.046875 -25.59375 L 7.3125 -25.59375 L 7.3125 -8.703125 C 7.3125 -7.023438 7.710938 -5.800781 8.515625 -5.03125 C 9.316406 -4.269531 10.425781 -3.890625 11.84375 -3.890625 C 14.8125 -3.890625 16.316406 -5.445312 16.359375 -8.5625 L 16.359375 -25.59375 Z M 21.65625 -25.59375 "/></g></g><g transform="translate(447.152842, 63.047551)"><g><path d="M 12.25 -5.25 C 12.25 -5.875 11.941406 -6.363281 11.328125 -6.71875 C 10.710938 -7.082031 9.726562 -7.40625 8.375 -7.6875 C 3.84375 -8.632812 1.578125 -10.554688 1.578125 -13.453125 C 1.578125 -15.140625 2.273438 -16.546875 3.671875 -17.671875 C 5.078125 -18.804688 6.910156 -19.375 9.171875 -19.375 C 11.585938 -19.375 13.519531 -18.804688 14.96875 -17.671875 C 16.414062 -16.535156 17.140625 -15.054688 17.140625 -13.234375 L 12.0625 -13.234375 C 12.0625 -13.960938 11.828125 -14.5625 11.359375 -15.03125 C 10.890625 -15.507812 10.15625 -15.75 9.15625 -15.75 C 8.300781 -15.75 7.640625 -15.554688 7.171875 -15.171875 C 6.703125 -14.785156 6.46875 -14.289062 6.46875 -13.6875 C 6.46875 -13.125 6.734375 -12.671875 7.265625 -12.328125 C 7.796875 -11.984375 8.691406 -11.6875 9.953125 -11.4375 C 11.222656 -11.1875 12.296875 -10.898438 13.171875 -10.578125 C 15.847656 -9.597656 17.1875 -7.894531 17.1875 -5.46875 C 17.1875 -3.726562 16.441406 -2.320312 14.953125 -1.25 C 13.472656 -0.175781 11.550781 0.359375 9.1875 0.359375 C 7.59375 0.359375 6.175781 0.0703125 4.9375 -0.5 C 3.707031 -1.070312 2.738281 -1.851562 2.03125 -2.84375 C 1.332031 -3.832031 0.984375 -4.898438 0.984375 -6.046875 L 5.796875 -6.046875 C 5.847656 -5.140625 6.179688 -4.445312 6.796875 -3.96875 C 7.421875 -3.488281 8.253906 -3.25 9.296875 -3.25 C 10.273438 -3.25 11.007812 -3.429688 11.5 -3.796875 C 12 -4.171875 12.25 -4.65625 12.25 -5.25 Z M 12.25 -5.25 "/></g></g><g transform="translate(465.659855, 63.047551)"><g><path d="M 7.3125 0 L 2.21875 0 L 2.21875 -19.015625 L 7.3125 -19.015625 Z M 1.921875 -23.9375 C 1.921875 -24.695312 2.175781 -25.320312 2.6875 -25.8125 C 3.195312 -26.3125 3.890625 -26.5625 4.765625 -26.5625 C 5.628906 -26.5625 6.316406 -26.3125 6.828125 -25.8125 C 7.347656 -25.320312 7.609375 -24.695312 7.609375 -23.9375 C 7.609375 -23.164062 7.347656 -22.535156 6.828125 -22.046875 C 6.304688 -21.554688 5.617188 -21.3125 4.765625 -21.3125 C 3.910156 -21.3125 3.222656 -21.554688 2.703125 -22.046875 C 2.179688 -22.535156 1.921875 -23.164062 1.921875 -23.9375 Z M 1.921875 -23.9375 "/></g></g><g transform="translate(475.203357, 63.047551)"><g><path d="M 6.625 -19.015625 L 6.78125 -16.828125 C 8.144531 -18.523438 9.96875 -19.375 12.25 -19.375 C 14.269531 -19.375 15.769531 -18.78125 16.75 -17.59375 C 17.738281 -16.414062 18.242188 -14.644531 18.265625 -12.28125 L 18.265625 0 L 13.1875 0 L 13.1875 -12.171875 C 13.1875 -13.242188 12.953125 -14.019531 12.484375 -14.5 C 12.015625 -14.988281 11.234375 -15.234375 10.140625 -15.234375 C 8.710938 -15.234375 7.640625 -14.625 6.921875 -13.40625 L 6.921875 0 L 1.84375 0 L 1.84375 -19.015625 Z M 6.625 -19.015625 "/></g></g><g transform="translate(495.362467, 63.047551)"><g><path d="M 1.21875 -9.65625 C 1.21875 -12.570312 1.910156 -14.921875 3.296875 -16.703125 C 4.679688 -18.484375 6.550781 -19.375 8.90625 -19.375 C 11 -19.375 12.625 -18.660156 13.78125 -17.234375 L 14 -19.015625 L 18.59375 -19.015625 L 18.59375 -0.640625 C 18.59375 1.023438 18.210938 2.472656 17.453125 3.703125 C 16.703125 4.941406 15.640625 5.878906 14.265625 6.515625 C 12.898438 7.160156 11.296875 7.484375 9.453125 7.484375 C 8.054688 7.484375 6.695312 7.203125 5.375 6.640625 C 4.050781 6.085938 3.050781 5.375 2.375 4.5 L 4.625 1.40625 C 5.882812 2.820312 7.421875 3.53125 9.234375 3.53125 C 10.578125 3.53125 11.625 3.171875 12.375 2.453125 C 13.125 1.734375 13.5 0.710938 13.5 -0.609375 L 13.5 -1.640625 C 12.332031 -0.304688 10.789062 0.359375 8.875 0.359375 C 6.59375 0.359375 4.742188 -0.535156 3.328125 -2.328125 C 1.921875 -4.117188 1.21875 -6.488281 1.21875 -9.4375 Z M 6.296875 -9.28125 C 6.296875 -7.5625 6.640625 -6.210938 7.328125 -5.234375 C 8.023438 -4.253906 8.972656 -3.765625 10.171875 -3.765625 C 11.722656 -3.765625 12.832031 -4.34375 13.5 -5.5 L 13.5 -13.5 C 12.820312 -14.65625 11.726562 -15.234375 10.21875 -15.234375 C 9 -15.234375 8.039062 -14.734375 7.34375 -13.734375 C 6.644531 -12.742188 6.296875 -11.257812 6.296875 -9.28125 Z M 6.296875 -9.28125 "/></g></g><g transform="translate(515.908239, 63.047551)"><g/></g><g transform="translate(524.871749, 63.047551)"><g><path d="M 23.3125 -12.21875 C 23.3125 -9.695312 22.863281 -7.488281 21.96875 -5.59375 C 21.082031 -3.695312 19.804688 -2.226562 18.140625 -1.1875 C 16.484375 -0.15625 14.585938 0.359375 12.453125 0.359375 C 10.328125 0.359375 8.429688 -0.148438 6.765625 -1.171875 C 5.097656 -2.191406 3.804688 -3.648438 2.890625 -5.546875 C 1.984375 -7.441406 1.523438 -9.617188 1.515625 -12.078125 L 1.515625 -13.34375 C 1.515625 -15.863281 1.96875 -18.082031 2.875 -20 C 3.78125 -21.914062 5.0625 -23.382812 6.71875 -24.40625 C 8.382812 -25.4375 10.28125 -25.953125 12.40625 -25.953125 C 14.539062 -25.953125 16.4375 -25.4375 18.09375 -24.40625 C 19.75 -23.382812 21.03125 -21.914062 21.9375 -20 C 22.851562 -18.082031 23.3125 -15.867188 23.3125 -13.359375 Z M 17.96875 -13.375 C 17.96875 -16.0625 17.484375 -18.101562 16.515625 -19.5 C 15.554688 -20.894531 14.1875 -21.59375 12.40625 -21.59375 C 10.632812 -21.59375 9.269531 -20.898438 8.3125 -19.515625 C 7.351562 -18.140625 6.867188 -16.125 6.859375 -13.46875 L 6.859375 -12.21875 C 6.859375 -9.601562 7.335938 -7.570312 8.296875 -6.125 C 9.253906 -4.6875 10.640625 -3.96875 12.453125 -3.96875 C 14.210938 -3.96875 15.566406 -4.660156 16.515625 -6.046875 C 17.472656 -7.441406 17.957031 -9.46875 17.96875 -12.125 Z M 17.96875 -13.375 "/></g></g><g transform="translate(549.723521, 63.047551)"><g><path d="M 13.34375 -1.9375 C 12.09375 -0.40625 10.359375 0.359375 8.140625 0.359375 C 6.097656 0.359375 4.539062 -0.226562 3.46875 -1.40625 C 2.394531 -2.582031 1.847656 -4.300781 1.828125 -6.5625 L 1.828125 -19.015625 L 6.90625 -19.015625 L 6.90625 -6.734375 C 6.90625 -4.753906 7.804688 -3.765625 9.609375 -3.765625 C 11.335938 -3.765625 12.523438 -4.363281 13.171875 -5.5625 L 13.171875 -19.015625 L 18.265625 -19.015625 L 18.265625 0 L 13.484375 0 Z M 13.34375 -1.9375 "/></g></g><g transform="translate(569.865056, 63.047551)"><g><path d="M 12.640625 -14.25 C 11.953125 -14.34375 11.34375 -14.390625 10.8125 -14.390625 C 8.882812 -14.390625 7.625 -13.742188 7.03125 -12.453125 L 7.03125 0 L 1.953125 0 L 1.953125 -19.015625 L 6.75 -19.015625 L 6.890625 -16.75 C 7.910156 -18.5 9.320312 -19.375 11.125 -19.375 C 11.6875 -19.375 12.210938 -19.296875 12.703125 -19.140625 Z M 12.640625 -14.25 "/></g></g><g transform="translate(582.993962, 63.047551)"><g/></g><g transform="translate(591.957472, 63.047551)"><g><path d="M 7.5625 -9.015625 L 7.5625 0 L 2.28125 0 L 2.28125 -25.59375 L 12.265625 -25.59375 C 14.191406 -25.59375 15.882812 -25.238281 17.34375 -24.53125 C 18.800781 -23.832031 19.921875 -22.832031 20.703125 -21.53125 C 21.492188 -20.238281 21.890625 -18.769531 21.890625 -17.125 C 21.890625 -14.613281 21.03125 -12.632812 19.3125 -11.1875 C 17.59375 -9.738281 15.21875 -9.015625 12.1875 -9.015625 Z M 7.5625 -13.296875 L 12.265625 -13.296875 C 13.660156 -13.296875 14.722656 -13.625 15.453125 -14.28125 C 16.191406 -14.9375 16.5625 -15.875 16.5625 -17.09375 C 16.5625 -18.34375 16.191406 -19.351562 15.453125 -20.125 C 14.710938 -20.894531 13.691406 -21.296875 12.390625 -21.328125 L 7.5625 -21.328125 Z M 7.5625 -13.296875 "/></g></g><g transform="translate(615.174722, 63.047551)"><g><path d="M 12.640625 -14.25 C 11.953125 -14.34375 11.34375 -14.390625 10.8125 -14.390625 C 8.882812 -14.390625 7.625 -13.742188 7.03125 -12.453125 L 7.03125 0 L 1.953125 0 L 1.953125 -19.015625 L 6.75 -19.015625 L 6.890625 -16.75 C 7.910156 -18.5 9.320312 -19.375 11.125 -19.375 C 11.6875 -19.375 12.210938 -19.296875 12.703125 -19.140625 Z M 12.640625 -14.25 "/></g></g><g transform="translate(628.303628, 63.047551)"><g><path d="M 1.15625 -9.6875 C 1.15625 -11.570312 1.519531 -13.253906 2.25 -14.734375 C 2.976562 -16.210938 4.023438 -17.351562 5.390625 -18.15625 C 6.753906 -18.96875 8.335938 -19.375 10.140625 -19.375 C 12.710938 -19.375 14.804688 -18.585938 16.421875 -17.015625 C 18.046875 -15.441406 18.953125 -13.3125 19.140625 -10.625 L 19.171875 -9.3125 C 19.171875 -6.394531 18.359375 -4.050781 16.734375 -2.28125 C 15.109375 -0.519531 12.921875 0.359375 10.171875 0.359375 C 7.429688 0.359375 5.242188 -0.519531 3.609375 -2.28125 C 1.972656 -4.039062 1.15625 -6.429688 1.15625 -9.453125 Z M 6.234375 -9.3125 C 6.234375 -7.507812 6.570312 -6.128906 7.25 -5.171875 C 7.9375 -4.222656 8.910156 -3.75 10.171875 -3.75 C 11.410156 -3.75 12.375 -4.21875 13.0625 -5.15625 C 13.75 -6.101562 14.09375 -7.613281 14.09375 -9.6875 C 14.09375 -11.457031 13.75 -12.828125 13.0625 -13.796875 C 12.375 -14.773438 11.398438 -15.265625 10.140625 -15.265625 C 8.898438 -15.265625 7.9375 -14.78125 7.25 -13.8125 C 6.570312 -12.84375 6.234375 -11.34375 6.234375 -9.3125 Z M 6.234375 -9.3125 "/></g></g><g transform="translate(648.656069, 63.047551)"><g><path d="M 6.71875 -19.015625 L 6.875 -16.890625 C 8.21875 -18.546875 10.039062 -19.375 12.34375 -19.375 C 14.789062 -19.375 16.472656 -18.40625 17.390625 -16.46875 C 18.722656 -18.40625 20.625 -19.375 23.09375 -19.375 C 25.15625 -19.375 26.691406 -18.769531 27.703125 -17.5625 C 28.710938 -16.363281 29.21875 -14.554688 29.21875 -12.140625 L 29.21875 0 L 24.125 0 L 24.125 -12.125 C 24.125 -13.207031 23.910156 -13.992188 23.484375 -14.484375 C 23.066406 -14.984375 22.320312 -15.234375 21.25 -15.234375 C 19.726562 -15.234375 18.675781 -14.507812 18.09375 -13.0625 L 18.109375 0 L 13.03125 0 L 13.03125 -12.109375 C 13.03125 -13.210938 12.8125 -14.007812 12.375 -14.5 C 11.9375 -14.988281 11.195312 -15.234375 10.15625 -15.234375 C 8.71875 -15.234375 7.675781 -14.640625 7.03125 -13.453125 L 7.03125 0 L 1.953125 0 L 1.953125 -19.015625 Z M 6.71875 -19.015625 "/></g></g><g transform="translate(679.817449, 63.047551)"><g><path d="M 1.15625 -9.6875 C 1.15625 -11.570312 1.519531 -13.253906 2.25 -14.734375 C 2.976562 -16.210938 4.023438 -17.351562 5.390625 -18.15625 C 6.753906 -18.96875 8.335938 -19.375 10.140625 -19.375 C 12.710938 -19.375 14.804688 -18.585938 16.421875 -17.015625 C 18.046875 -15.441406 18.953125 -13.3125 19.140625 -10.625 L 19.171875 -9.3125 C 19.171875 -6.394531 18.359375 -4.050781 16.734375 -2.28125 C 15.109375 -0.519531 12.921875 0.359375 10.171875 0.359375 C 7.429688 0.359375 5.242188 -0.519531 3.609375 -2.28125 C 1.972656 -4.039062 1.15625 -6.429688 1.15625 -9.453125 Z M 6.234375 -9.3125 C 6.234375 -7.507812 6.570312 -6.128906 7.25 -5.171875 C 7.9375 -4.222656 8.910156 -3.75 10.171875 -3.75 C 11.410156 -3.75 12.375 -4.21875 13.0625 -5.15625 C 13.75 -6.101562 14.09375 -7.613281 14.09375 -9.6875 C 14.09375 -11.457031 13.75 -12.828125 13.0625 -13.796875 C 12.375 -14.773438 11.398438 -15.265625 10.140625 -15.265625 C 8.898438 -15.265625 7.9375 -14.78125 7.25 -13.8125 C 6.570312 -12.84375 6.234375 -11.34375 6.234375 -9.3125 Z M 6.234375 -9.3125 "/></g></g><g transform="translate(700.16989, 63.047551)"><g><path d="M 9.859375 -3.75 C 10.796875 -3.75 11.554688 -4.003906 12.140625 -4.515625 C 12.734375 -5.035156 13.039062 -5.722656 13.0625 -6.578125 L 17.828125 -6.578125 C 17.816406 -5.285156 17.460938 -4.101562 16.765625 -3.03125 C 16.078125 -1.957031 15.128906 -1.125 13.921875 -0.53125 C 12.722656 0.0625 11.398438 0.359375 9.953125 0.359375 C 7.234375 0.359375 5.085938 -0.503906 3.515625 -2.234375 C 1.941406 -3.960938 1.15625 -6.351562 1.15625 -9.40625 L 1.15625 -9.734375 C 1.15625 -12.671875 1.9375 -15.007812 3.5 -16.75 C 5.0625 -18.5 7.203125 -19.375 9.921875 -19.375 C 12.296875 -19.375 14.203125 -18.695312 15.640625 -17.34375 C 17.078125 -15.988281 17.804688 -14.1875 17.828125 -11.9375 L 13.0625 -11.9375 C 13.039062 -12.914062 12.734375 -13.710938 12.140625 -14.328125 C 11.554688 -14.953125 10.785156 -15.265625 9.828125 -15.265625 C 8.640625 -15.265625 7.742188 -14.832031 7.140625 -13.96875 C 6.535156 -13.101562 6.234375 -11.707031 6.234375 -9.78125 L 6.234375 -9.25 C 6.234375 -7.289062 6.53125 -5.882812 7.125 -5.03125 C 7.726562 -4.175781 8.640625 -3.75 9.859375 -3.75 Z M 9.859375 -3.75 "/></g></g><g transform="translate(718.940535, 63.047551)"><g><path d="M 1.15625 -9.6875 C 1.15625 -11.570312 1.519531 -13.253906 2.25 -14.734375 C 2.976562 -16.210938 4.023438 -17.351562 5.390625 -18.15625 C 6.753906 -18.96875 8.335938 -19.375 10.140625 -19.375 C 12.710938 -19.375 14.804688 -18.585938 16.421875 -17.015625 C 18.046875 -15.441406 18.953125 -13.3125 19.140625 -10.625 L 19.171875 -9.3125 C 19.171875 -6.394531 18.359375 -4.050781 16.734375 -2.28125 C 15.109375 -0.519531 12.921875 0.359375 10.171875 0.359375 C 7.429688 0.359375 5.242188 -0.519531 3.609375 -2.28125 C 1.972656 -4.039062 1.15625 -6.429688 1.15625 -9.453125 Z M 6.234375 -9.3125 C 6.234375 -7.507812 6.570312 -6.128906 7.25 -5.171875 C 7.9375 -4.222656 8.910156 -3.75 10.171875 -3.75 C 11.410156 -3.75 12.375 -4.21875 13.0625 -5.15625 C 13.75 -6.101562 14.09375 -7.613281 14.09375 -9.6875 C 14.09375 -11.457031 13.75 -12.828125 13.0625 -13.796875 C 12.375 -14.773438 11.398438 -15.265625 10.140625 -15.265625 C 8.898438 -15.265625 7.9375 -14.78125 7.25 -13.8125 C 6.570312 -12.84375 6.234375 -11.34375 6.234375 -9.3125 Z M 6.234375 -9.3125 "/></g></g><g transform="translate(739.292977, 63.047551)"><g><path d="M 1.15625 -9.65625 C 1.15625 -12.613281 1.820312 -14.972656 3.15625 -16.734375 C 4.488281 -18.492188 6.304688 -19.375 8.609375 -19.375 C 10.460938 -19.375 11.992188 -18.679688 13.203125 -17.296875 L 13.203125 -27 L 18.296875 -27 L 18.296875 0 L 13.71875 0 L 13.46875 -2.015625 C 12.195312 -0.429688 10.566406 0.359375 8.578125 0.359375 C 6.335938 0.359375 4.539062 -0.519531 3.1875 -2.28125 C 1.832031 -4.050781 1.15625 -6.507812 1.15625 -9.65625 Z M 6.234375 -9.28125 C 6.234375 -7.5 6.546875 -6.132812 7.171875 -5.1875 C 7.796875 -4.238281 8.695312 -3.765625 9.875 -3.765625 C 11.445312 -3.765625 12.554688 -4.425781 13.203125 -5.75 L 13.203125 -13.25 C 12.566406 -14.570312 11.472656 -15.234375 9.921875 -15.234375 C 7.460938 -15.234375 6.234375 -13.25 6.234375 -9.28125 Z M 6.234375 -9.28125 "/></g></g><g transform="translate(759.575115, 63.047551)"><g><path d="M 10.703125 0.359375 C 7.910156 0.359375 5.640625 -0.492188 3.890625 -2.203125 C 2.140625 -3.921875 1.265625 -6.203125 1.265625 -9.046875 L 1.265625 -9.546875 C 1.265625 -11.453125 1.632812 -13.15625 2.375 -14.65625 C 3.113281 -16.164062 4.160156 -17.328125 5.515625 -18.140625 C 6.867188 -18.960938 8.410156 -19.375 10.140625 -19.375 C 12.742188 -19.375 14.789062 -18.550781 16.28125 -16.90625 C 17.78125 -15.269531 18.53125 -12.945312 18.53125 -9.9375 L 18.53125 -7.859375 L 6.421875 -7.859375 C 6.578125 -6.617188 7.066406 -5.625 7.890625 -4.875 C 8.722656 -4.125 9.773438 -3.75 11.046875 -3.75 C 12.992188 -3.75 14.519531 -4.457031 15.625 -5.875 L 18.125 -3.078125 C 17.363281 -1.992188 16.332031 -1.148438 15.03125 -0.546875 C 13.726562 0.0546875 12.285156 0.359375 10.703125 0.359375 Z M 10.125 -15.265625 C 9.113281 -15.265625 8.296875 -14.921875 7.671875 -14.234375 C 7.046875 -13.554688 6.644531 -12.585938 6.46875 -11.328125 L 13.53125 -11.328125 L 13.53125 -11.71875 C 13.507812 -12.84375 13.207031 -13.710938 12.625 -14.328125 C 12.039062 -14.953125 11.207031 -15.265625 10.125 -15.265625 Z M 10.125 -15.265625 "/></g></g><g transform="translate(779.031205, 63.047551)"><g><path d="M 12.25 -5.25 C 12.25 -5.875 11.941406 -6.363281 11.328125 -6.71875 C 10.710938 -7.082031 9.726562 -7.40625 8.375 -7.6875 C 3.84375 -8.632812 1.578125 -10.554688 1.578125 -13.453125 C 1.578125 -15.140625 2.273438 -16.546875 3.671875 -17.671875 C 5.078125 -18.804688 6.910156 -19.375 9.171875 -19.375 C 11.585938 -19.375 13.519531 -18.804688 14.96875 -17.671875 C 16.414062 -16.535156 17.140625 -15.054688 17.140625 -13.234375 L 12.0625 -13.234375 C 12.0625 -13.960938 11.828125 -14.5625 11.359375 -15.03125 C 10.890625 -15.507812 10.15625 -15.75 9.15625 -15.75 C 8.300781 -15.75 7.640625 -15.554688 7.171875 -15.171875 C 6.703125 -14.785156 6.46875 -14.289062 6.46875 -13.6875 C 6.46875 -13.125 6.734375 -12.671875 7.265625 -12.328125 C 7.796875 -11.984375 8.691406 -11.6875 9.953125 -11.4375 C 11.222656 -11.1875 12.296875 -10.898438 13.171875 -10.578125 C 15.847656 -9.597656 17.1875 -7.894531 17.1875 -5.46875 C 17.1875 -3.726562 16.441406 -2.320312 14.953125 -1.25 C 13.472656 -0.175781 11.550781 0.359375 9.1875 0.359375 C 7.59375 0.359375 6.175781 0.0703125 4.9375 -0.5 C 3.707031 -1.070312 2.738281 -1.851562 2.03125 -2.84375 C 1.332031 -3.832031 0.984375 -4.898438 0.984375 -6.046875 L 5.796875 -6.046875 C 5.847656 -5.140625 6.179688 -4.445312 6.796875 -3.96875 C 7.421875 -3.488281 8.253906 -3.25 9.296875 -3.25 C 10.273438 -3.25 11.007812 -3.429688 11.5 -3.796875 C 12 -4.171875 12.25 -4.65625 12.25 -5.25 Z M 12.25 -5.25 "/></g></g></g></svg>