<svg width="435" height="360" viewBox="0 0 435 360" fill="none" xmlns="http://www.w3.org/2000/svg">
<g clip-path="url(#clip0)">
<path d="M384.152 48.4163C384.152 48.4163 350.762 1.34261 290.386 1.47979C230.009 1.61698 193.218 43.4287 151.898 67.7494C130.263 80.4879 103.618 80.0372 79.9241 87.8959C4.14664 113.03 -12.9302 211.802 26.3799 261.698C60.4161 304.891 112.862 322.892 188.689 318.865C264.515 314.847 318.05 314.631 379.427 260.16C440.803 205.688 424.07 110.825 384.152 48.4163Z" fill="#1FB53A"/>
<path d="M364.379 43.5165C363.115 43.5165 361.948 43.9476 361.007 44.6629C359.821 41.2431 356.576 38.7934 352.763 38.7934C351.204 38.7934 349.743 39.205 348.479 39.9203C347.694 31.2287 340.391 24.4087 331.49 24.4087C323.295 24.4087 316.462 30.1802 314.805 37.8723C312.805 35.9027 310.051 34.6779 307.022 34.6779C301.767 34.6779 297.366 38.3329 296.219 43.2421C295.013 41.6253 293.082 40.567 290.905 40.567C289.719 40.567 288.611 40.8806 287.651 41.4195C287.063 34.8249 281.514 29.6511 274.76 29.6511C268.545 29.6511 263.359 34.0312 262.104 39.8615C260.585 38.3623 258.496 37.4412 256.203 37.4412C251.556 37.4412 247.782 41.2137 247.782 45.8584C247.782 45.9662 247.792 46.0642 247.801 46.1719H295.944H303.326H369.124C368.153 44.5845 366.399 43.5165 364.379 43.5165Z" fill="white"/>
<path d="M250.889 235.427C249.625 235.427 248.458 235.858 247.517 236.574C246.331 233.154 243.086 230.704 239.273 230.704C237.714 230.704 236.253 231.116 234.989 231.831C234.204 223.139 226.901 216.319 218 216.319C209.805 216.319 202.972 222.091 201.315 229.783C199.315 227.813 196.561 226.589 193.532 226.589C188.277 226.589 183.876 230.243 182.729 235.153C181.523 233.536 179.592 232.478 177.415 232.478C176.229 232.478 175.121 232.791 174.161 233.33C173.573 226.735 168.024 221.562 161.27 221.562C155.055 221.562 149.869 225.942 148.614 231.772C147.095 230.273 145.006 229.352 142.713 229.352C138.066 229.352 134.292 233.124 134.292 237.769C134.292 237.877 134.302 237.975 134.311 238.083H182.454H189.836H255.634C254.653 236.505 252.899 235.427 250.889 235.427Z" fill="white"/>
<path d="M256.722 167.188C254.222 167.188 251.928 168.031 250.085 169.442C247.752 162.72 241.37 157.879 233.842 157.879C230.773 157.879 227.891 158.693 225.401 160.104C223.862 142.975 209.471 129.551 191.944 129.551C175.818 129.551 162.338 140.917 159.094 156.066C155.143 152.186 149.741 149.785 143.762 149.785C133.41 149.785 124.754 156.988 122.489 166.659C120.117 163.465 116.313 161.397 112.029 161.397C109.696 161.397 107.52 162.014 105.628 163.082C104.461 150.089 93.5406 139.908 80.2379 139.908C68.0037 139.908 57.7792 148.531 55.3186 160.025C52.3287 157.076 48.2212 155.263 43.6922 155.263C34.5362 155.263 27.1055 162.69 27.1055 171.843C27.1055 172.048 27.1251 172.254 27.1349 172.46H121.94H136.468H266.054C264.133 169.305 260.682 167.188 256.722 167.188Z" fill="white"/>
<path d="M198.472 109.424L140.34 98.1943L97.8834 89.8849C97.3737 89.7869 96.8639 89.7183 96.3542 89.6791C94.0897 89.5125 87.8353 89.2087 84.4042 90.7668C80.1595 92.6971 78.1009 95.7054 79.3165 97.626C80.5321 99.5465 88.3549 103.799 95.4327 106.18C102.51 108.561 137.547 116.136 142.507 116.528C147.467 116.93 153.574 117.184 153.574 117.184C153.574 117.184 174.533 119.085 182.542 118.37C190.542 117.645 202.188 114.039 202.766 112.501C203.344 110.962 198.472 109.424 198.472 109.424Z" fill="white"/>
<path d="M176.308 105.612C176.308 105.612 182.621 106.121 185.474 104.534C188.326 102.947 199.384 86.8079 200.07 86.6413C200.766 86.4748 205.727 86.8667 205.727 86.8667L198.139 110.766L175.386 105.769L176.308 105.612Z" fill="white"/>
<path d="M191.992 116.626C191.992 116.626 193.63 116.077 194.561 115.695C195.502 115.313 197.6 114.578 198.786 113.99C199.972 113.402 200.511 112.315 200.511 112.315L229.371 109.179L226.44 108.944L195.404 111.002C195.374 114.167 191.992 116.626 191.992 116.626Z" fill="#263238"/>
<path d="M242.459 98.8803L224.048 100.419L224.656 100.193L168.455 103.633L133.145 105.788C133.145 105.788 128.841 105.671 130.312 107.151L136.086 108.748C136.086 108.748 125.204 108.562 109.196 104.328C93.1877 100.095 87.8058 99.2135 83.2768 96.3522C81.9926 95.5487 81.1496 94.4512 80.6104 93.2852C79.0811 94.804 78.5616 96.4306 79.3164 97.6163C80.4438 99.3996 87.3157 103.211 93.9621 105.651L93.6583 105.573L83.767 104.328C83.767 104.328 81.3162 100.958 81.2574 101.634C81.1986 102.31 79.8066 105.602 80.7084 105.671C81.6103 105.739 92.4231 106.837 92.4231 106.837L92.1682 110.002C91.531 110.012 90.9918 110.492 90.9428 111.139C90.884 111.825 91.4036 112.422 92.08 112.481C92.6779 112.53 93.2073 112.148 93.374 111.599C93.521 111.658 93.6779 111.697 93.8445 111.717C93.8935 111.717 93.9425 111.717 93.9916 111.717C94.2464 113.892 95.4914 115.568 98.0304 116.136C101.148 116.842 110.137 118.017 112.97 116.655C115.019 115.666 114.156 112.422 113.529 110.708C117.333 111.57 121.303 112.432 125.057 113.226L124.852 115.783L127.283 116.655L129.057 119.977L127.557 120.506C127.4 119.722 126.812 119.115 126.067 119.056C125.136 118.978 124.303 119.781 124.224 120.84C124.136 121.898 124.832 122.819 125.763 122.887C126.371 122.936 126.92 122.613 127.263 122.104L129.557 122.29L129.577 122.398C128.89 122.603 128.341 123.27 128.273 124.112C128.185 125.171 128.881 126.092 129.812 126.16C130.714 126.229 131.508 125.494 131.635 124.495L131.802 124.534C132.057 125.082 132.557 125.484 133.155 125.533C134.086 125.612 134.919 124.808 134.998 123.75C135.076 122.692 134.39 121.77 133.459 121.702C132.704 121.643 132.018 122.162 131.743 122.917L130.89 122.633L130.694 119.438L129.332 116.606L129.714 114.206C135.88 115.47 140.86 116.391 142.507 116.528C147.467 116.93 153.574 117.185 153.574 117.185C153.574 117.185 155.76 117.381 158.986 117.626L158.829 119.644L157.153 119.654C156.917 119.017 156.398 118.547 155.741 118.498C154.81 118.419 153.976 119.223 153.898 120.281C153.81 121.339 154.506 122.26 155.437 122.329C156.094 122.378 156.682 122.006 157.015 121.408L158.662 121.682L158.692 121.741C158.172 122.035 157.8 122.613 157.741 123.309C157.652 124.367 158.349 125.288 159.28 125.357C159.966 125.416 160.593 124.994 160.907 124.348L162.221 124.455C162.476 125.024 162.976 125.425 163.583 125.474C164.515 125.553 165.348 124.749 165.426 123.691C165.505 122.633 164.819 121.712 163.887 121.643C162.956 121.565 162.123 122.368 162.044 123.426L161.123 123.583L161.26 117.802C168.083 118.282 177.69 118.811 182.542 118.38C183.944 118.253 185.464 118.037 187.013 117.763C182.709 117.694 176.651 117.498 172.671 116.91C165.936 115.921 165.789 114.999 165.789 114.999C165.789 114.999 166.916 115.088 166.985 114.186C167.054 113.285 167.161 111.932 167.161 111.932C167.161 111.932 170.23 113.314 171.112 113.608C171.994 113.902 169.887 111.923 169.887 111.923L179.072 110.619L182.082 112.677L183.229 112.54L181.778 110.835L190.551 109.541C190.65 109.551 190.748 109.551 190.846 109.561L194.022 110.913L195.375 111.021L194.257 109.561L193.934 108.581L202.031 107.249C202.031 107.249 205.04 109.306 206.658 108.983C208.275 108.66 206.56 107.386 206.56 107.386L209.765 107.072L212.275 106.935L212.451 104.681L215.932 103.407L245.997 99.6544L249.458 96.0778L242.459 98.8803ZM98.0304 107.748C98.0304 107.748 94.8248 107.307 94.1092 109.483C94.0798 109.483 94.0602 109.473 94.0308 109.473C93.8739 109.463 93.7171 109.473 93.57 109.502L93.7661 107.023L103.226 108.287C103.51 108.356 103.804 108.424 104.098 108.503L98.0304 107.748Z" fill="#263238"/>
<path d="M160.103 106.582L152.604 106.66C152.604 106.66 153.437 107.63 153.673 110.374C153.908 113.118 155.427 113.921 157.672 114.323C159.907 114.725 163.172 113.627 163.172 110.903C163.172 108.179 162.378 106.543 160.103 106.582Z" fill="white"/>
<path d="M83.62 91.6094L82.7476 93.4222L84.4337 93.5887L85.4042 91.7564L83.62 91.6094Z" fill="#263238"/>
<path d="M91.1587 94.2358L92.5213 94.3632L91.7861 92.2663L91.2175 92.2173L91.1587 94.2358Z" fill="#263238"/>
<path d="M88.1588 91.9722L87.7373 93.9026L90.5998 94.1769L90.6586 92.1779L88.1588 91.9722Z" fill="#263238"/>
<path d="M87.6001 91.933L86.012 91.8057L85.0317 93.638L87.1786 93.8536L87.6001 91.933Z" fill="#263238"/>
<path d="M83.0221 91.5606L82.8947 91.5508C82.0222 92.0701 81.2772 92.6384 80.6792 93.2166L82.1497 93.3636L83.0221 91.5606Z" fill="#263238"/>
<path d="M419.668 155.194C419.541 152.764 419.374 150.334 419.149 147.904H399.905V131.697H416.972C416.296 127.905 415.512 124.112 414.629 120.35H301.787V130.883H315.57L323.677 155.204H339.891V280.845H352.792C361.566 275.005 370.408 268.175 379.427 260.179C388.426 252.193 395.739 243.325 401.552 233.83H379.633V209.5H409.64V218.015C411.365 213.909 412.865 209.705 414.129 205.443H413.688V181.122H418.982C419.129 179.78 419.256 178.427 419.364 177.065H413.688V155.185H419.668V155.194ZM352.87 131.687H374.76V147.894H352.87V131.687ZM329.353 147.894L323.314 131.687H351.243V147.894H329.353ZM375.574 233.82H345.567V209.5H375.574V233.82ZM375.574 205.443H345.567V181.122H375.574V205.443ZM375.574 177.075H345.567V155.194H375.574V177.075ZM376.388 147.894V131.687H398.278V147.894H376.388ZM409.64 205.443H379.633V181.122H409.64V205.443ZM409.64 177.075H379.633V155.194H409.64V177.075Z" fill="#263238"/>
<path d="M404.248 278.072H13.0969V288.165H404.248V278.072Z" fill="#263238"/>
<path d="M319.295 283.089V0.489746" stroke="#263238" stroke-miterlimit="10" stroke-linecap="round" stroke-linejoin="round"/>
<path d="M154.604 283.089V1.63623" stroke="#263238" stroke-miterlimit="10" stroke-linecap="round" stroke-linejoin="round"/>
<path d="M0.490234 178.672H434.51" stroke="#263238" stroke-miterlimit="10" stroke-linecap="round" stroke-linejoin="round"/>
<path d="M13.7341 65.2993H418.325" stroke="#263238" stroke-miterlimit="10" stroke-linecap="round" stroke-linejoin="round"/>
<path d="M212.834 124.553L208.579 127.179" stroke="#263238" stroke-width="0.5" stroke-miterlimit="10" stroke-linecap="round" stroke-linejoin="round"/>
<path d="M284.651 80.3213L218.559 121.036" stroke="#263238" stroke-width="0.5" stroke-miterlimit="10" stroke-linecap="round" stroke-linejoin="round"/>
<path d="M293.376 83.0649L240.42 115.685" stroke="#263238" stroke-width="0.5" stroke-miterlimit="10" stroke-linecap="round" stroke-linejoin="round"/>
<path d="M316.501 68.8271L300.512 78.675" stroke="#263238" stroke-width="0.5" stroke-miterlimit="10" stroke-linecap="round" stroke-linejoin="round"/>
<path d="M39.3102 265.01L35.0459 267.636" stroke="#263238" stroke-width="0.5" stroke-miterlimit="10" stroke-linecap="round" stroke-linejoin="round"/>
<path d="M111.127 220.768L45.0352 261.482" stroke="#263238" stroke-width="0.5" stroke-miterlimit="10" stroke-linecap="round" stroke-linejoin="round"/>
<path d="M119.842 223.521L66.896 256.142" stroke="#263238" stroke-width="0.5" stroke-miterlimit="10" stroke-linecap="round" stroke-linejoin="round"/>
<path d="M142.968 209.274L126.979 219.132" stroke="#263238" stroke-width="0.5" stroke-miterlimit="10" stroke-linecap="round" stroke-linejoin="round"/>
<path d="M281.406 268.4L277.142 271.016" stroke="#263238" stroke-width="0.5" stroke-miterlimit="10" stroke-linecap="round" stroke-linejoin="round"/>
<path d="M353.223 224.158L287.131 264.872" stroke="#263238" stroke-width="0.5" stroke-miterlimit="10" stroke-linecap="round" stroke-linejoin="round"/>
<path d="M361.938 226.912L308.992 259.522" stroke="#263238" stroke-width="0.5" stroke-miterlimit="10" stroke-linecap="round" stroke-linejoin="round"/>
<path d="M385.063 212.664L369.075 222.512" stroke="#263238" stroke-width="0.5" stroke-miterlimit="10" stroke-linecap="round" stroke-linejoin="round"/>
<path d="M241.213 243.335C241.213 243.335 236.645 284.451 235.773 295.768C234.9 307.086 230.763 334.934 230.763 339.501C230.763 344.067 231.195 349.731 231.195 349.731L225.97 350.162C225.97 350.162 223.137 331.015 223.137 322.745C223.137 314.474 220.304 298.59 220.529 292.936C220.745 287.283 222.274 278.797 222.274 273.789C222.274 268.782 217.265 256.387 217.706 239.2C218.147 222.012 241.213 243.335 241.213 243.335Z" fill="#263238" stroke="#263238" stroke-miterlimit="10" stroke-linecap="round" stroke-linejoin="round"/>
<path d="M231.205 349.721C231.205 349.721 236.43 353.856 238.606 355.159C240.782 356.462 244.703 357.334 244.703 358.206C244.703 359.079 242.958 359.51 242.958 359.51H224.676C224.676 359.51 224.676 356.247 225.107 354.287C225.538 352.327 225.98 350.152 225.98 350.152L231.205 349.721Z" fill="#833AB4" stroke="#263238" stroke-miterlimit="10" stroke-linecap="round" stroke-linejoin="round"/>
<path d="M230.773 353.425L231.205 349.73L225.98 350.162C225.98 350.162 225.666 351.749 225.303 353.425H230.773Z" fill="white" stroke="#263238" stroke-miterlimit="10" stroke-linecap="round" stroke-linejoin="round"/>
<path d="M219.451 330.142C219.451 330.142 213.138 327.967 212.265 329.486C211.393 331.005 212.922 345.37 213.569 349.289C214.226 353.209 215.961 357.56 217.049 357.119C218.137 356.688 218.794 343.41 219.657 341.45C220.529 339.491 223.352 334.709 223.352 334.709L219.451 330.142Z" fill="#833AB4" stroke="#263238" stroke-miterlimit="10" stroke-linecap="round" stroke-linejoin="round"/>
<path d="M217.127 329.457C217.363 332.151 218.147 336.228 218.147 336.228L222.588 336.051C223.048 335.257 223.372 334.709 223.372 334.709L219.451 330.142C219.451 330.142 218.412 329.78 217.127 329.457Z" fill="white" stroke="#263238" stroke-miterlimit="10" stroke-linecap="round" stroke-linejoin="round"/>
<path d="M215.314 227.01C215.314 227.01 209.216 233.751 208.785 241.59C208.354 249.42 217.49 259.209 221.411 263.344C225.333 267.479 247.752 293.152 247.752 293.152C247.752 293.152 239.919 298.159 236.214 305.773C232.518 313.387 219.451 330.143 219.451 330.143L223.588 336.012C223.588 336.012 249.928 309.683 252.967 306.861C256.016 304.029 263.202 295.327 263.202 293.593C263.202 291.849 252.752 273.358 250.144 266.176C247.536 258.993 232.95 239.2 232.95 239.2C232.95 239.2 223.803 228.97 215.314 227.01Z" fill="#263238" stroke="#263238" stroke-miterlimit="10" stroke-linecap="round" stroke-linejoin="round"/>
<path d="M236.096 277.141L237.145 278.268" stroke="white" stroke-miterlimit="10" stroke-linecap="round" stroke-linejoin="round"/>
<path d="M222.95 263.001L234.449 275.367" stroke="white" stroke-miterlimit="10" stroke-linecap="round" stroke-linejoin="round"/>
<path d="M224.892 321.97C224.107 322.979 223.549 323.675 223.372 323.852" stroke="white" stroke-miterlimit="10" stroke-linecap="round" stroke-linejoin="round"/>
<path d="M234.567 309.232C234.567 309.232 230.234 315.013 226.94 319.315" stroke="white" stroke-miterlimit="10" stroke-linecap="round" stroke-linejoin="round"/>
<path d="M266.466 253.124C266.466 253.124 270.819 257.69 271.907 259.866C272.995 262.041 274.74 266.607 273.426 266.833C272.122 267.048 271.25 262.913 271.25 262.913C271.25 262.913 272.122 266.833 271.681 267.92C271.25 269.008 269.936 264.001 269.936 264.001C269.936 264.001 270.152 268.567 269.505 267.92C268.848 267.264 267.985 263.138 267.985 263.138C267.985 263.138 267.554 268.146 266.897 267.058C266.241 265.97 266.241 262.923 266.241 262.923C266.241 262.923 264.064 259.66 262.976 257.269C261.888 254.878 261.888 254.006 261.888 254.006L266.466 253.124Z" fill="white" stroke="#263238" stroke-miterlimit="10" stroke-linecap="round" stroke-linejoin="round"/>
<path d="M266.074 257.524C266.074 257.524 265.956 259.062 266.662 259.777C267.368 260.483 269.27 261.081 269.27 261.081C269.27 261.081 272.113 265.343 272.113 263.922C272.113 262.502 270.691 258.592 269.387 257.289" fill="white"/>
<path d="M266.074 257.524C266.074 257.524 265.956 259.062 266.662 259.777C267.368 260.483 269.27 261.081 269.27 261.081C269.27 261.081 272.113 265.343 272.113 263.922C272.113 262.502 270.691 258.592 269.387 257.289" stroke="#263238" stroke-miterlimit="10" stroke-linecap="round" stroke-linejoin="round"/>
<path d="M253.624 220.699C253.624 220.699 258.408 230.273 260.153 235.28C261.898 240.287 267.339 252.683 267.339 252.683L262.114 255.73C262.114 255.73 255.585 246.157 252.752 241.149C249.919 236.142 248.615 232.664 248.615 232.664L253.624 220.699Z" fill="#833AB4" stroke="#263238" stroke-miterlimit="10" stroke-linecap="round" stroke-linejoin="round"/>
<path d="M251.703 235.084L250.83 245.314C250.83 245.314 243.86 242.923 242.556 242.051C241.253 241.179 241.468 235.309 242.772 228.558C244.076 221.807 252.35 202.229 252.35 202.229L251.703 235.084Z" fill="#263238" stroke="#263238" stroke-miterlimit="10" stroke-linecap="round" stroke-linejoin="round"/>
<path d="M247.095 176.536C247.095 176.536 251.664 185.678 252.105 189.372C252.536 193.067 254.065 199.818 252.32 206.344C250.575 212.87 246.448 222.444 245.792 230.057C245.135 237.671 243.615 246.157 243.615 246.157L241.439 250.292L237.518 243.981V249.42C237.518 249.42 234.469 246.157 229.685 243.55C224.901 240.944 218.804 232.458 218.804 232.458L216.412 230.067C216.412 230.067 226.862 188.51 227.734 182.856C228.607 177.202 234.479 175.243 237.969 174.586C241.439 173.93 247.095 176.536 247.095 176.536Z" fill="white" stroke="#263238" stroke-miterlimit="10" stroke-linecap="round" stroke-linejoin="round"/>
<path d="M247.781 181.122C247.781 181.122 250.526 186.854 250.222 192.116C250.026 195.595 250.615 200.484 250.615 200.484C250.615 200.484 249.742 222.238 250.399 225.942C251.056 229.646 251.703 235.084 251.703 235.084C251.703 235.084 253.448 212.674 254.536 207.892C255.624 203.111 257.143 198.534 255.408 193.312C253.663 188.089 252.359 182.866 250.624 180.691C248.879 178.515 246.056 176.997 246.056 176.997L247.781 181.122Z" fill="#833AB4" stroke="#263238" stroke-miterlimit="10" stroke-linecap="round" stroke-linejoin="round"/>
<path d="M244.047 185.022L243.292 189.863C243.292 189.863 236.861 183.062 237.077 178.927C237.292 174.792 238.165 171.96 241.429 171.098C244.694 170.226 247.007 177.281 247.654 180.975C248.301 184.669 246.144 189.108 246.144 189.108L244.047 185.022Z" fill="white" stroke="#263238" stroke-miterlimit="10" stroke-linecap="round" stroke-linejoin="round"/>
<path d="M252.105 170.441C252.105 170.441 247.536 177.839 246.007 181.102C244.488 184.365 244.047 185.022 244.047 185.022C244.047 185.022 241.439 176.536 241.439 173.93C241.439 171.323 241.655 167.404 241.655 167.404L246.88 160.437L252.105 170.441Z" fill="white" stroke="#263238" stroke-miterlimit="10" stroke-linecap="round" stroke-linejoin="round"/>
<path d="M258.418 143.249C258.418 143.249 264.515 148.903 265.388 155.655C266.26 162.396 262.339 167.835 257.771 170.01C253.203 172.185 249.938 171.97 247.762 168.266C245.586 164.572 247.978 148.903 251.242 145.199C254.497 141.505 258.418 143.249 258.418 143.249Z" fill="#263238" stroke="#263238" stroke-miterlimit="10" stroke-linecap="round" stroke-linejoin="round"/>
<path d="M256.016 146.297C256.016 146.297 259.496 148.256 259.496 154.567C259.496 158.055 256.889 165.885 256.447 168.275C256.016 170.666 253.614 171.97 251.663 171.538C249.703 171.107 244.694 166.531 243.605 165.669C242.517 164.797 241.213 161.318 241.429 156.096C241.655 150.863 247.752 143.034 256.016 146.297Z" fill="white" stroke="#263238" stroke-miterlimit="10" stroke-linecap="round" stroke-linejoin="round"/>
<path d="M257.761 144.993C257.761 144.993 250.575 153.479 245.576 161.524C240.566 169.579 240.792 172.185 236.655 170.226C232.518 168.266 222.294 158.046 223.597 150.863C224.901 143.68 228.822 132.804 242.968 132.804C257.114 132.804 261.682 138.467 257.761 144.993Z" fill="#263238" stroke="#263238" stroke-miterlimit="10" stroke-linecap="round" stroke-linejoin="round"/>
<path d="M237.949 174.576C237.949 174.576 239.253 184.581 241.213 190.245C243.174 195.898 246.223 200.034 246.223 200.034C246.223 200.034 240.782 212.87 235.773 221.571C230.763 230.273 224.891 240.934 224.891 240.934L212.922 230.488C212.922 230.488 220.108 213.732 220.323 209.382C220.539 205.031 222.068 176.526 224.244 176.311C226.421 176.105 237.949 174.576 237.949 174.576Z" fill="#833AB4" stroke="#263238" stroke-miterlimit="10" stroke-linecap="round" stroke-linejoin="round"/>
<path d="M208.726 213.174L227.597 178.633L230.097 175.723L233.616 175.311C233.616 175.311 230.538 178.388 229.558 180.103C228.577 181.817 211.177 213.419 211.177 213.419L208.726 213.174Z" fill="white" stroke="#263238" stroke-miterlimit="10" stroke-linecap="round" stroke-linejoin="round"/>
<path d="M203.501 258.925C203.501 258.925 202.031 265.177 201.845 266.088C201.658 267.009 198.904 269.762 198.531 271.418C198.159 273.074 198.159 274.73 197.423 274.172C196.688 273.623 196.316 271.967 196.502 271.418C196.502 271.418 190.434 268.479 190.248 267.372C190.061 266.264 199.443 258.739 199.443 258.739L203.501 258.925Z" fill="white" stroke="#263238" stroke-miterlimit="10" stroke-linecap="round" stroke-linejoin="round"/>
<path d="M196.521 271.418C196.521 271.418 197.07 268.106 198.364 266.274L196.521 271.418Z" fill="white"/>
<path d="M196.521 271.418C196.521 271.418 197.07 268.106 198.364 266.274" stroke="#263238" stroke-miterlimit="10" stroke-linecap="round" stroke-linejoin="round"/>
<path d="M206.962 212.841L228.881 215.663L223.872 248.842L216.353 249.469L195.992 238.2L206.962 212.841Z" fill="white" stroke="#263238" stroke-miterlimit="10" stroke-linecap="round" stroke-linejoin="round"/>
<path d="M222.931 215.349L216.353 249.469L223.872 248.842L228.881 215.663L222.931 215.349Z" fill="white" stroke="#263238" stroke-miterlimit="10" stroke-linecap="round" stroke-linejoin="round"/>
<path d="M230.097 175.723C230.097 175.723 236.087 181.533 232.646 191.558C229.205 201.572 222.941 215.349 222.941 215.349H226.068L236.567 188.236C236.567 188.236 237.547 184.473 236.077 180.632C234.606 176.791 233.626 175.321 233.626 175.321L230.097 175.723Z" fill="white" stroke="#263238" stroke-miterlimit="10" stroke-linecap="round" stroke-linejoin="round"/>
<path d="M231.646 175.664C231.646 175.664 221.637 175.664 221.411 177.183C221.196 178.702 212.265 214.389 211.177 216.349C210.089 218.309 205.952 224.619 205.079 229.401C204.207 234.183 198.551 259.209 198.551 259.209L204.648 260.081C204.648 260.081 216.618 233.752 217.706 229.185C218.794 224.619 220.313 215.918 220.313 215.918C220.313 215.918 234.243 187.638 234.028 185.022C233.812 182.415 233.155 180.671 233.155 180.671" fill="#833AB4"/>
<path d="M231.646 175.664C231.646 175.664 221.637 175.664 221.411 177.183C221.196 178.702 212.265 214.389 211.177 216.349C210.089 218.309 205.952 224.619 205.079 229.401C204.207 234.183 198.551 259.209 198.551 259.209L204.648 260.081C204.648 260.081 216.618 233.752 217.706 229.185C218.794 224.619 220.313 215.918 220.313 215.918C220.313 215.918 234.243 187.638 234.028 185.022C233.812 182.415 233.155 180.671 233.155 180.671" stroke="#263238" stroke-miterlimit="10" stroke-linecap="round" stroke-linejoin="round"/>
<path d="M135.38 355.894C135.38 353.964 133.811 352.406 131.89 352.406C129.959 352.406 128.4 353.974 128.4 355.894C128.4 357.825 129.969 359.383 131.89 359.383C133.821 359.383 135.38 357.815 135.38 355.894Z" fill="#263238" stroke="#263238" stroke-miterlimit="10" stroke-linecap="round" stroke-linejoin="round"/>
<path d="M188.101 278.973L136.488 354.973" stroke="#263238" stroke-width="2" stroke-miterlimit="10" stroke-linecap="round" stroke-linejoin="round"/>
<path d="M196.335 267.009L188.101 278.973" stroke="#263238" stroke-width="4" stroke-miterlimit="10" stroke-linecap="round" stroke-linejoin="round"/>
<path d="M131.027 351.494L115.754 340.921C114.215 339.853 113.833 337.737 114.892 336.198L141.487 297.826C142.556 296.288 144.673 295.905 146.212 296.964L161.485 307.537C163.024 308.605 163.407 310.721 162.348 312.26L135.752 350.632C134.694 352.17 132.576 352.562 131.027 351.494Z" fill="#263238" stroke="#263238" stroke-miterlimit="10" stroke-linecap="round" stroke-linejoin="round"/>
<path d="M107.392 331.995L116.705 338.442L140.262 304.46L129.92 297.297C128.292 296.17 126.057 296.572 124.92 298.208L106.177 325.253C104.647 327.448 105.196 330.466 107.392 331.995Z" fill="#263238" stroke="#263238" stroke-miterlimit="10" stroke-linecap="round" stroke-linejoin="round"/>
<path d="M109.51 333.454L118.823 339.902L142.379 305.92L132.037 298.757C130.41 297.63 128.175 298.032 127.038 299.668L108.294 326.713C106.755 328.908 107.304 331.936 109.51 333.454Z" fill="#833AB4" stroke="#263238" stroke-miterlimit="10" stroke-linecap="round" stroke-linejoin="round"/>
<path d="M133.076 299.482L122.44 313.935C122.057 314.464 122.165 315.199 122.695 315.581L125.283 317.482C125.812 317.865 126.547 317.757 126.93 317.228L137.664 302.647L133.076 299.482Z" fill="#263238"/>
<path d="M133.449 353.17L118.176 342.597C116.636 341.529 116.254 339.413 117.313 337.874L143.909 299.502C144.977 297.963 147.095 297.581 148.634 298.64L163.907 309.213C165.446 310.281 165.828 312.397 164.769 313.936L138.174 352.308C137.105 353.846 134.988 354.238 133.449 353.17Z" fill="#833AB4" stroke="#263238" stroke-miterlimit="10" stroke-linecap="round" stroke-linejoin="round"/>
<path d="M133.36 349.456L130.792 356.629L132.076 357.364L136.85 351.661L133.36 349.456Z" fill="white" stroke="#263238" stroke-miterlimit="10" stroke-linecap="round" stroke-linejoin="round"/>
<path d="M154.035 302.373L142.164 318.286C141.752 318.844 141.86 319.628 142.419 320.04L144.879 321.872C145.438 322.284 146.222 322.176 146.634 321.618L158.623 305.547L154.035 302.373Z" fill="#263238"/>
<path d="M133.9 346.389L123.557 338.972C122.224 338.011 121.92 336.159 122.871 334.827L130.773 323.823C131.733 322.49 133.586 322.186 134.919 323.137L145.261 330.554C146.595 331.515 146.899 333.367 145.948 334.699L138.046 345.703C137.086 347.046 135.233 347.35 133.9 346.389Z" fill="#263238" stroke="#263238" stroke-miterlimit="10" stroke-linecap="round" stroke-linejoin="round"/>
<path d="M135.056 347.555L124.714 340.138C123.381 339.177 123.077 337.325 124.028 335.993L131.929 324.989C132.89 323.656 134.743 323.352 136.076 324.303L146.418 331.72C147.751 332.681 148.055 334.533 147.104 335.865L139.203 346.869C138.242 348.202 136.39 348.506 135.056 347.555Z" fill="#833AB4" stroke="#263238" stroke-miterlimit="10" stroke-linecap="round" stroke-linejoin="round"/>
<path d="M411.708 359.51H420.541" stroke="#263238" stroke-miterlimit="10" stroke-linecap="round" stroke-linejoin="round"/>
<path d="M169.681 359.51H401.405" stroke="#263238" stroke-miterlimit="10" stroke-linecap="round" stroke-linejoin="round"/>
<path d="M5.63672 359.51H163.799" stroke="#263238" stroke-miterlimit="10" stroke-linecap="round" stroke-linejoin="round"/>
</g>
<defs>
<clipPath id="clip0">
<rect width="435" height="360" fill="white"/>
</clipPath>
</defs>
</svg>
