<svg id="SvgjsSvg1012" width="288" height="288" xmlns="http://www.w3.org/2000/svg" version="1.1" xmlns:xlink="http://www.w3.org/1999/xlink" xmlns:svgjs="http://svgjs.com/svgjs"><defs id="SvgjsDefs1013"></defs><g id="SvgjsG1014"><svg xmlns="http://www.w3.org/2000/svg" width="288" height="288" enable-background="new 0 0 600 600" viewBox="0 0 600 600"><path d="M261.6,112.8h2.4v9.6c0,9.6,7.2,16.8,16.8,16.8l0,0c9.6,0,16.8-7.2,16.8-16.8v-9.6c21.6,0,52.8,12,67.2,19.2		c19.2,9.6,36,21.6,50.4,36c14.399,14.4,26.399,31.2,36,50.4c7.2,14.4,19.2,45.6,19.2,67.2h-12c-7.2,0-16.801,7.2-16.801,16.8l0,0
		c0,9.6,7.2,16.8,19.2,16.8h9.601c0,21.6-12,52.8-19.2,67.2c-9.601,19.199-21.601,36-36,50.399c-14.4,14.4-31.2,26.4-50.4,36
		C350.4,480,319.2,492,297.6,492v-12c0-9.6-7.2-16.8-14.4-16.8h-2.4c-9.6,0-16.8,7.2-16.8,19.2v7.199c-21.6,0-52.8-12-67.2-19.199
		c-19.2-9.601-36-21.601-50.4-36C132,420,120,403.2,110.4,384c-7.2-14.4-19.2-45.6-19.2-67.2h9.6c9.6,0,16.8-7.2,16.8-16.8
		c0-9.6-7.2-16.8-16.8-16.8h-7.2c0-21.6,12-52.8,19.2-67.2c9.6-19.2,19.2-33.6,33.6-48s31.2-26.4,48-36c9.6-4.8,21.6-9.6,31.2-12
		S249.6,112.8,261.6,112.8L261.6,112.8z M280.8,542.4c132,0,242.4-108,242.4-240c0-134.4-108-242.4-240-242.4h-9.6
		c-16.8,0-38.4,4.8-52.8,7.2c-16.8,2.4-26.4,7.2-43.2,14.4c-12,4.8-26.4,14.4-36,21.6c-12,7.2-24,19.2-33.6,26.4
		c-36,36-69.6,96-69.6,168v2.4C40.8,434.4,148.8,542.4,280.8,542.4L280.8,542.4z" fill="#505565" class="color000 svgShape"></path><path d="M244.8,300c0,12,4.8,19.2,12,26.4c7.2,7.199,14.4,9.6,26.4,9.6c4.8,4.8,16.8,14.4,21.6,19.2
		c7.2,7.2,14.4,14.399,21.601,19.2c7.199,4.8,14.399,12,21.6,19.199c2.4,2.4,16.8,16.801,21.6,16.801h4.801
		c7.199,0,16.8-9.601,16.8-19.2c0-7.2-12-19.2-16.8-24c-7.2-7.2-12-14.4-19.2-21.601C348,338.4,343.2,331.2,336,324
		c-2.4-2.4-7.2-7.2-9.6-12c-2.4-2.4-7.2-7.2-9.601-9.6c0-14.4-7.2-26.4-16.8-31.2c0-21.6-2.4-40.8-2.4-62.4c0-9.6-2.4-21.6-2.4-31.2
		c0-12-4.8-16.8-14.4-16.8c-4.8,0-9.6,2.4-9.6,4.8c-2.4,4.8-2.4,7.2-2.4,14.4c0,4.8-2.4,24-2.4,31.2c0,21.6-2.4,40.8-2.4,62.4
		C254.4,273.6,244.8,288,244.8,300L244.8,300z" fill="#505565" class="color000 svgShape"></path></svg></g></svg>