<?xml version="1.0" encoding="utf-8"?>
<!-- Generator: Adobe Illustrator 15.0.0, SVG Export Plug-In . SVG Version: 6.00 Build 0)  -->
<!DOCTYPE svg PUBLIC "-//W3C//DTD SVG 1.1//EN" "http://www.w3.org/Graphics/SVG/1.1/DTD/svg11.dtd">
<svg version="1.1" id="Layer_1" xmlns="http://www.w3.org/2000/svg" xmlns:xlink="http://www.w3.org/1999/xlink" x="0px" y="0px"
	 width="600px" height="600px" viewBox="0 0 600 600" enable-background="new 0 0 600 600" xml:space="preserve">
<g id="Layer_x0020_1_1_">
	<g enable-background="new    ">
		<path d="M139.867,248.19h72.741v20.458h-43.19v16.626h36.89v19.225h-36.89v38.903h-29.551V248.19z"/>
	</g>
	<g enable-background="new    ">
		<path d="M219.731,343.402V248.19h49.035c9.093,0,16.042,0.779,20.848,2.338s8.681,4.449,11.625,8.67
			c2.944,4.221,4.416,9.363,4.416,15.425c0,5.283-1.126,9.839-3.379,13.671s-5.35,6.939-9.292,9.32
			c-2.513,1.516-5.958,2.771-10.333,3.767c3.504,1.171,6.058,2.341,7.66,3.51c1.081,0.781,2.649,2.449,4.705,5.007
			c2.055,2.557,3.429,4.528,4.122,5.915l14.247,27.589h-33.243l-15.727-29.096c-1.992-3.768-3.767-6.213-5.326-7.339
			c-2.122-1.471-4.525-2.209-7.209-2.209h-2.598v38.644H219.731z M249.282,286.769h12.405c1.342,0,3.939-0.432,7.793-1.299
			c1.948-0.39,3.54-1.385,4.774-2.987c1.233-1.602,1.851-3.442,1.851-5.521c0-3.074-0.974-5.434-2.923-7.08
			c-1.948-1.645-5.608-2.468-10.976-2.468h-12.924V286.769z"/>
	</g>
	<g enable-background="new    ">
		<path d="M314.108,248.19h78.846v20.328h-49.36v15.133h45.788v19.42h-45.788v18.769h50.789v21.563h-80.274V248.19z"/>
	</g>
	<g enable-background="new    ">
		<path d="M401.113,248.19h78.846v20.328h-49.36v15.133h45.788v19.42h-45.788v18.769h50.789v21.563h-80.274V248.19z"/>
	</g>
	<path stroke="#1F1A17" stroke-width="0.003" d="M299.2,43.4c141.444,0,254.6,113.156,254.6,254.6S440.645,552.6,299.2,552.6
		S44.6,439.444,44.6,298S157.756,43.4,299.2,43.4z M453.503,148.84l-64.293,79.724h-69.436l90.01-113.156
		c-33.433-20.574-72.008-30.861-113.156-30.861c-115.727,0-210.88,95.154-210.88,213.453c0,56.577,23.146,110.584,59.149,149.16
		l64.293-79.724h69.437l-90.01,113.156c33.433,20.572,72.008,30.86,113.155,30.86c118.299,0,213.452-95.153,213.452-213.453
		C512.653,241.422,489.507,187.416,453.503,148.84L453.503,148.84z"/>
</g>
</svg>
