<svg width="48" height="48" viewBox="0 0 48 48" fill="none" xmlns="http://www.w3.org/2000/svg">
<g clip-path="url(#clip0)">
<path d="M33.7276 31.0475C33.7239 31.6889 33.1952 32.207 32.5474 32.2041L28.3246 32.1869L30.0278 29.8715L32.5619 29.8818C33.2097 29.8843 33.7316 30.4062 33.7276 31.0475Z" fill="#F0F1F3"/>
<path d="M33.8115 17.1149C33.8076 17.756 33.2794 18.2736 32.6318 18.271L30.0977 18.2606L28.4226 15.9314L32.6453 15.9487C33.2931 15.9511 33.8155 16.4735 33.8115 17.1149Z" fill="#F0F1F3"/>
<path d="M23.2153 23.4566C22.8915 23.4548 22.6273 23.7137 22.6254 24.0348C22.6235 24.3558 22.8843 24.6167 23.2083 24.6177C23.5327 24.619 23.7968 24.3601 23.7983 24.0396C23.8005 23.7188 23.5397 23.4579 23.2153 23.4566Z" fill="black"/>
<path d="M39.2572 20.7157C37.9955 20.5515 37.5171 20.6387 32.4954 20.5923L31.2392 18.8454L32.6279 18.851C33.6005 18.855 34.3922 18.0795 34.3979 17.1164C34.4037 16.1539 33.6212 15.3711 32.6487 15.3673L28.7264 15.3513L23.0319 7.43259C22.6637 6.9211 22.0655 6.6149 21.4311 6.61231C20.2112 6.60733 19.2784 7.68445 19.4635 8.87246L21.2783 20.5464L18.7188 20.5361C17.8417 20.5325 16.7762 20.6683 15.5471 20.9393L13.3215 16.8467C12.9929 16.2429 12.3577 15.8655 11.6633 15.862C10.4801 15.8572 9.58057 16.9147 9.78486 18.067L10.5626 22.4478C9.10051 22.9854 8.09536 23.4261 8.0489 23.4465C7.83773 23.5393 7.70105 23.7462 7.69967 23.9746C7.69828 24.2043 7.8336 24.4115 8.04251 24.5056C8.08855 24.5264 9.08849 24.9752 10.544 25.5247L9.71343 29.8992C9.49489 31.0518 10.3839 32.1143 11.5658 32.1192C12.2597 32.1215 12.8994 31.7493 13.2352 31.148L15.51 27.0742C16.7366 27.3553 17.8001 27.4995 18.6767 27.5033L21.2363 27.5137L19.2805 39.1721C19.0807 40.3604 20.0023 41.4434 21.2209 41.4483C21.855 41.4509 22.4572 41.1493 22.8319 40.6408L28.6212 32.7695L32.5433 32.7855C33.5159 32.7895 34.3079 32.0133 34.3136 31.0506C34.3196 30.0879 33.5374 29.3058 32.5648 29.3018L31.1759 29.296L32.4533 27.5595C37.4805 27.5542 37.9488 27.6453 39.2127 27.4917C39.2142 27.4915 39.216 27.4914 39.2176 27.4911C42.1568 27.1283 44.1387 25.7753 44.1489 24.1234C44.1584 22.4721 42.1932 21.1025 39.2572 20.7157ZM32.6416 16.5285C32.9657 16.5297 33.2268 16.7907 33.2248 17.1118C33.2229 17.4329 32.9592 17.691 32.635 17.6898L30.4015 17.6805L29.564 16.5158L32.6416 16.5285ZM20.6229 8.69341C20.5473 8.20893 20.9283 7.77138 21.4242 7.77356C21.6826 7.77446 21.9267 7.89942 22.0762 8.1074L31.05 20.5864L22.4664 20.5512L20.6229 8.69341ZM11.656 17.0234C11.9209 17.0247 12.1633 17.1684 12.2885 17.3987L14.37 21.2265C13.5298 21.4499 12.6306 21.7256 11.6833 22.05L10.9402 17.8642C10.8623 17.425 11.2052 17.0214 11.656 17.0234ZM11.5722 30.9581C11.1251 30.9563 10.7824 30.5536 10.8663 30.1115L11.6601 25.9318C12.6042 26.2641 13.5003 26.5471 14.3365 26.7773L12.2088 30.5876C12.0808 30.8171 11.8367 30.959 11.5722 30.9581ZM32.5579 30.4631C32.8819 30.4644 33.1426 30.7248 33.1407 31.0458C33.1388 31.3669 32.8746 31.6255 32.5504 31.6243L29.4729 31.6116L30.3246 30.4539L32.5579 30.4631ZM21.8842 39.9581C21.7317 40.1653 21.4861 40.2883 21.2279 40.2872C20.7345 40.2852 20.3559 39.8467 20.4377 39.3606L22.4241 27.5186L31.0079 27.5536L21.8842 39.9581ZM18.6839 26.342C17.771 26.3384 16.6113 26.1603 15.2369 25.813C13.4503 25.3613 11.4953 24.6706 9.79742 23.9833C11.5498 23.2917 13.5464 22.6079 15.3656 22.1725C16.6968 21.8535 17.8227 21.6935 18.7119 21.6973C38.9487 21.804 37.8276 21.7213 38.9333 21.8477C39.6551 22.4827 40.0482 23.2792 40.0432 24.1067C40.0382 24.9342 39.6355 25.7277 38.9063 26.3566C37.7965 26.4743 38.9065 26.4004 18.6839 26.342ZM40.708 25.9877C41.0362 25.4053 41.2123 24.7695 41.2162 24.1116C41.2201 23.4539 41.0519 22.8166 40.7309 22.2316C41.6337 22.5282 42.9813 23.1968 42.9761 24.1187C42.9715 24.8469 42.066 25.5545 40.708 25.9877Z" fill="black"/>
<path d="M27.9086 23.4767L25.563 23.467C25.239 23.4657 24.9748 23.7246 24.9728 24.0453C24.9709 24.3661 25.2319 24.6268 25.5559 24.6284L27.9016 24.6378C28.2254 24.6393 28.4896 24.3804 28.4915 24.0597C28.4934 23.7389 28.2326 23.4781 27.9086 23.4767Z" fill="black"/>
<path d="M32.6003 23.4957L30.2538 23.4859C29.9299 23.4848 29.6657 23.7436 29.6636 24.0642C29.662 24.385 29.9229 24.6458 30.2467 24.6473L32.5932 24.6569C32.9172 24.6582 33.1813 24.3993 33.1833 24.0786C33.1852 23.7579 32.9243 23.497 32.6003 23.4957Z" fill="black"/>
</g>
<defs>
<clipPath id="clip0">
<rect width="29.8496" height="29.8496" fill="white" transform="matrix(0.707107 0.707107 -0.714213 0.699928 24 3)"/>
</clipPath>
</defs>
</svg>
