<svg id="SvgjsSvg1018" width="288" height="288" xmlns="http://www.w3.org/2000/svg" version="1.1" xmlns:xlink="http://www.w3.org/1999/xlink" xmlns:svgjs="http://svgjs.com/svgjs"><defs id="SvgjsDefs1019"></defs><g id="SvgjsG1020"><svg xmlns="http://www.w3.org/2000/svg" width="288" height="288" enable-background="new 0 0 600 600" viewBox="0 0 600 600"><path d="M576,369.6c0-52.8-36-100.8-88.8-117.6c24-19.2,38.399-50.4,38.399-81.6c0-60-48-108-108-108c-40.8,0-76.8,21.6-96,57.6	c-2.399,0-7.199,0-12,0c-4.8,0-7.199,0-12,0c-19.2-36-55.2-57.6-96-57.6c-60,0-108,48-108,108c0,33.6,16.8,62.4,40.8,81.6
	C84,268.8,48,314.4,48,369.6v72h88.8c-4.8,14.4-7.2,31.2-7.2,48V542.4H492V489.6c0-16.8-2.4-31.199-7.2-48H576V369.6z M420,93.6
	c40.8,0,74.4,33.6,74.4,74.4c0,36-24,64.8-57.601,72c0-50.4-33.6-96-79.2-112.8C369.6,108,393.6,93.6,420,93.6z M403.2,242.4
	c0,50.4-40.8,91.2-91.2,91.2c-50.4,0-91.2-40.8-91.2-91.2s40.8-91.2,91.2-91.2C362.4,151.2,403.2,192,403.2,242.4z M204,93.6
	c26.4,0,48,14.4,62.4,33.6c-45.6,19.2-76.8,62.4-79.2,112.8c-31.2-7.2-57.6-36-57.6-72C129.6,127.2,163.2,93.6,204,93.6z M81.6,408
	v-38.4c0-50.399,48-93.6,105.6-93.6h4.8c7.2,26.4,24,50.4,45.6,67.2c-36,12-64.8,36-84,67.2h-72V408z M460.8,506.4H163.2v-19.2
	c0-67.2,57.6-122.4,127.2-122.4h43.2c69.601,0,127.2,55.2,127.2,122.4V506.4z M542.4,408h-72c-19.2-31.2-48-52.8-84-67.2
	C408,324,424.8,302.4,432,273.6h7.2c57.6,0,105.6,43.2,105.6,93.6L542.4,408L542.4,408z" fill="#505565" class="color000 svgShape"></path></svg></g></svg>