<svg id="SvgjsSvg1023" width="288" height="288" xmlns="http://www.w3.org/2000/svg" version="1.1" xmlns:xlink="http://www.w3.org/1999/xlink" xmlns:svgjs="http://svgjs.com/svgjs"><defs id="SvgjsDefs1024"></defs><g id="SvgjsG1025"><svg xmlns="http://www.w3.org/2000/svg" width="288" height="288" enable-background="new 0 0 600 600" viewBox="0 0 600 600"><path d="M312,24c-74.4,0-146.4,28.8-199.2,81.6c-38.4,36-62.4,84-74.4,134.4c0,0,0,0,0,2.4			c-4.8,19.2-7.2,40.8-7.2,62.4C33.6,453.6,158.4,576,307.2,576c0,0,0,0,2.399,0c40.801,0,81.601-9.6,117.601-26.4H492
			c31.2,0,55.2-26.399,55.2-55.199V436.8c21.6-40.8,33.6-86.399,36-132C585.6,151.2,463.2,26.4,312,24z M504,163.2
			c14.4,19.2,24,40.8,33.6,64.8H420L504,163.2z M386.4,72c36,12,69.6,33.6,96,62.4l-96,74.4V72z M139.2,129.6
			c26.4-26.4,57.6-45.6,91.2-57.6v139.2L132,136.8C134.4,134.4,136.8,132,139.2,129.6z M108,165.6l84,62.4H79.2
			C86.4,206.4,96,184.8,108,165.6z M112.8,439.2C98.4,420,86.4,396,79.2,372H192L112.8,439.2z M230.4,528c-36-12-69.6-33.6-96-60
			l96-79.2V528z M492,513.6h-69.6c-2.4,0-4.801,0-7.2,2.4c-9.601,4.8-19.2,9.6-31.2,12V393.6L511.2,499.2
			C508.8,506.4,501.6,513.6,492,513.6z M516,420c-2.4,2.4-2.4,4.8-2.4,9.6v24L415.2,372H537.6C532.8,388.8,525.6,405.6,516,420z
			 M544.8,336H367.2c-9.601,0-16.8,7.2-16.8,16.8v182.4C336,537.6,324,537.6,309.6,540c0,0,0,0-2.399,0c-14.4,0-28.8-2.4-40.8-4.8
			V352.8c0-9.6-7.2-16.8-16.8-16.8h-180c-2.4-12-2.4-21.6-2.4-33.6c0-14.4,0-26.4,2.4-40.8h177.6c9.6,0,16.8-7.2,16.8-16.8V67.2
			c0-2.4,0-2.4,0-4.8c14.4-2.4,28.8-4.8,43.2-4.8c2.399,0,2.399,0,4.8,0c12,0,26.4,2.4,38.4,4.8c0,2.4,0,2.4,0,4.8v177.6
			c0,9.6,7.199,16.8,16.8,16.8h177.6c2.4,12,2.4,26.4,2.4,38.4C547.2,314.4,547.2,326.4,544.8,336z" fill="#505565" class="color000 svgShape"></path></svg></g></svg>