<?xml version="1.0" encoding="utf-8"?>
<!-- Generator: Adobe Illustrator 15.0.0, SVG Export Plug-In . SVG Version: 6.00 Build 0)  -->
<!DOCTYPE svg PUBLIC "-//W3C//DTD SVG 1.1//EN" "http://www.w3.org/Graphics/SVG/1.1/DTD/svg11.dtd">
<svg version="1.1" id="Layer_1" xmlns="http://www.w3.org/2000/svg" xmlns:xlink="http://www.w3.org/1999/xlink" x="0px" y="0px"
	 width="600px" height="600px" viewBox="0 0 600 600" enable-background="new 0 0 600 600" xml:space="preserve">
<g id="XMLID_5_">
	<g id="XMLID_6_">
		<path id="XMLID_7_" d="M520.8,573.6L444,412.8c-2.4-2.399-4.8-4.8-7.2-7.2L398.4,388.8l64.8-110.4l0,0
			c12-26.4,19.2-52.8,19.2-81.6c0-48-19.2-93.6-52.801-127.2C396,36,348,16.8,300,16.8S208.8,36,175.2,69.6
			c-31.2,31.2-50.4,76.8-50.4,124.8c0,28.8,7.2,57.6,19.2,84l0,0l64.8,110.4l-38.4,16.8c0,0-2.4,2.4-4.8,7.2L88.8,573.6
			c-2.4,4.801-2.4,12,2.4,16.801c4.8,4.8,9.6,4.8,16.8,2.399l96-43.2l96,43.2c4.8,2.4,7.2,2.4,12,0l96-43.2l96,43.2
			c2.4,0,4.8,2.4,4.8,2.4c4.8,0,7.2-2.4,9.601-4.8C523.2,585.6,523.2,578.4,520.8,573.6z M170.4,264c-12-21.6-16.8-45.6-16.8-69.6
			c0-81.6,67.2-148.8,148.8-151.2c40.8,0,79.199,14.4,108,43.2c31.199,28.8,45.6,67.2,45.6,108c0,24-4.8,48-16.8,69.6L316.8,470.4
			c-4.8,7.199-9.6,7.199-12,7.199c-2.399,0-9.6,0-12-7.199L170.4,264z M412.8,520.8c-4.8-2.399-7.2-2.399-12,0l-96,43.2l-96-43.2
			c-4.8-2.399-7.2-2.399-12,0l-67.2,28.8L187.2,427.2l36-16.8l43.2,72c7.2,12,21.6,21.6,36,21.6c14.399,0,28.8-7.2,36-21.6
			l43.199-72l36,16.8L475.2,549.6L412.8,520.8z"/>
	</g>
</g>
</svg>
