<svg id="SvgjsSvg1034" width="288" height="288" xmlns="http://www.w3.org/2000/svg" version="1.1" xmlns:xlink="http://www.w3.org/1999/xlink" xmlns:svgjs="http://svgjs.com/svgjs"><defs id="SvgjsDefs1035"></defs><g id="SvgjsG1036"><svg xmlns="http://www.w3.org/2000/svg" width="288" height="288" enable-background="new 0 0 600 600" viewBox="0 0 600 600"><path d="M333.6,271.2c4.801,0,26.4,9.6,33.601,12c9.6,4.8,4.8,2.4,9.6,12c0,2.4,4.8,14.399,4.8,16.8s-9.6,16.8-9.6,24	c-9.6,0-38.4-40.8-38.4-50.4V271.2L333.6,271.2z M333.6,240v-48c24,2.4,84,14.4,103.2,24s19.2,16.8,28.8,36
	c4.801,14.4,12,31.2,16.801,48c4.8,14.4,9.6,31.2,14.399,48s7.2,36,14.4,50.4c4.8,14.399,12,28.8,21.6,43.199
	c2.4,4.801,24,38.4,24,40.801l0,0c0,4.8-16.8,26.399-21.6,31.199c-7.2,9.601-16.8,19.2-28.8,26.4c-19.2,14.4-48,26.4-79.2,26.4
	c-2.4-7.2-21.601-31.2-28.8-38.4c-12-12-24-19.2-38.4-28.8c-33.6-21.601-50.4-24-69.6-62.4c-9.6-21.6-4.8-36-9.6-57.6
	c-4.8-19.2-9.6-33.601-16.8-48c-12-24-43.2-60-43.2-88.8v-9.6c0-9.6,7.2-26.4,16.8-26.4c14.4,0,33.6,21.6,40.8,31.2
	c12,16.8,16.8,26.4,26.4,45.6c7.2,19.2,43.2,79.2,64.8,79.2h2.4c7.2,0,16.8-12,21.6-19.2c2.4,0,14.4-28.8,14.4-28.8V312
	c0-2.4-7.2-21.6-9.6-26.4c-2.4-12-2.4-16.8-14.4-21.6C376.8,259.2,333.6,244.8,333.6,240L333.6,240z M196.8,230.4v7.2
	c0,40.8,33.6,76.8,45.6,108c9.6,21.601,12,33.601,14.4,62.4c2.4,21.6,12,43.2,21.6,55.2h-36c-2.4-24-33.6-50.4-62.4-50.4
	c-16.8,0-28.8,9.601-40.8,16.8c-4.8,4.801-7.2,9.601-12,16.801c-2.4,4.8-7.2,16.8-9.6,16.8h-36c-12,0-21.6-9.601-21.6-21.601V86.4
	c0-12,9.6-21.6,21.6-21.6H120c2.4,0,7.2,12,9.6,16.8c4.8,7.2,7.2,9.6,12,14.4c7.2,7.2,24,16.8,40.8,16.8h4.8c24,0,52.8-26.4,55.2-48
	H288c28.8,0,21.6,45.6,21.6,76.8c0,33.6,0,64.8,0,98.4c-14.399-16.8-43.2-55.2-72-55.2h-7.2C211.2,184.8,196.8,208.8,196.8,230.4
	L196.8,230.4z M136.8,487.2c14.4,0,9.6-19.2,14.4-31.2c4.8-9.6,14.4-16.8,28.8-16.8h9.6c12,0,24,9.6,28.8,19.2
	c4.8,9.6,0,31.199,14.4,31.199h52.8c4.8,0,7.2,0,12-2.399c4.8,2.399,12,9.6,16.8,14.399c4.8,4.801,12,9.601,19.199,12
	c9.601,4.801,28.801,16.801,38.4,24c12,12,19.2,16.801,31.2,33.601c12,19.2,7.2,21.6,40.8,16.8s67.2-19.2,86.4-38.4
	c14.399-12,52.8-50.399,52.8-72c0-2.399-31.2-48-36-57.6c-12-24-19.2-40.8-26.4-67.2c-9.6-40.8-28.8-105.6-48-136.8
	c-19.2-28.8-93.6-40.8-136.8-48c-7.2,0-4.8-9.6-4.8-19.2c0-7.2,0-14.4,0-24c0-12,0-36,0-43.2c-4.8-21.6-24-40.8-50.4-40.8h-45.6
	c-16.8-2.4-12,16.8-16.8,31.2c-7.2,9.6-16.8,16.8-31.2,16.8H180c-12,0-26.4-9.6-28.8-19.2c-7.2-9.6-2.4-31.2-16.8-31.2h-48
	c-28.8,0-52.8,24-52.8,52.8V432c0,28.8,21.6,55.2,45.6,55.2H136.8L136.8,487.2z" fill="#505565" class="color000 svgShape"></path></svg></g></svg>